<svg xmlns="http://www.w3.org/2000/svg" viewBox="0 0 16.06 16.01"><defs><style>.cls-1,.cls-3{fill:#fff;}.cls-1,.cls-2{stroke:#fff;stroke-miterlimit:10;}.cls-1{stroke-width:1.27px;}.cls-2{stroke-width:1.01px;}</style></defs><g id="圖層_2" data-name="圖層 2"><g id="文字_QR" data-name="文字+QR"><path d="M14.58,15.23l-12,.2a1,1,0,0,1-1-1L1.27,2.32a1,1,0,0,1,1-1l12-.2a1,1,0,0,1,1.06,1l.22,12.13A1,1,0,0,1,14.58,15.23Z"/><path d="M14.58,15.3c-2.28.06-4.55.13-6.83.28-1.14.07-2.28.19-3.42.28L2.62,16a1.7,1.7,0,0,1-1.21-.37,1.66,1.66,0,0,1-.6-1.22C.62,12.14.41,9.86.24,7.58.18,6.44.1,5.31.06,4.17L0,2.46V2.11A2.11,2.11,0,0,1,.1,1.62,2.42,2.42,0,0,1,.58.78,2.35,2.35,0,0,1,2.27,0C4.55,0,6.83,0,9.11.07c1.14,0,2.28.1,3.42.16l1.71.08a1.91,1.91,0,0,1,1.3.51,1.75,1.75,0,0,1,.52,1.3L15.74,9c0,1.14-.06,2.29-.06,3.43V14.1A1.12,1.12,0,0,1,14.58,15.3Zm0-.14a1,1,0,0,0,.94-1.06l0-1.71L15.41,9l-.14-6.84a.92.92,0,0,0-1-.91l-1.71,0-3.42.06-6.84.14a.88.88,0,0,0-.87,1l0,1.71L1.5,7.56l.1,6.84a.93.93,0,0,0,1,.92l1.71,0,3.42-.05Z"/><ellipse class="cls-1" cx="13.81" cy="3.5" rx="0.65" ry="0.62"/><ellipse class="cls-2" cx="9.16" cy="8.32" rx="3.12" ry="2.97"/><ellipse class="cls-3" cx="9.07" cy="8.35" rx="2.9" ry="2.75"/><path d="M7.15,6.28a3.24,3.24,0,0,1,4.19,0,2.88,2.88,0,0,1-.08,4.4,3.18,3.18,0,0,1-4.46-.37A2.87,2.87,0,0,1,7.15,6.28Zm0,0a2.56,2.56,0,0,0-.91,1.93,2.48,2.48,0,0,0,.86,1.86,2.82,2.82,0,0,0,3.61,0A2.43,2.43,0,0,0,11,6.62a2.75,2.75,0,0,0-1.83-1A2.8,2.8,0,0,0,7.15,6.28Z"/></g></g></svg>