<svg width="928" height="283" viewBox="0 0 928 283" fill="none" xmlns="http://www.w3.org/2000/svg">
<g filter="url(#filter0_d_982_164)">
<path d="M131.029 74.6H142.129V45.9L119.629 6.2H110.529V4.8H141.129V6.2H131.129L151.129 41.4L170.029 6.2H159.929V4.8H181.329V6.2H171.629L152.129 42.7V74.6H163.229V76H131.029V74.6ZM194.139 74.6H205.239V6.2H194.139V4.8H251.339V22.1H250.239C249.372 19.5 248.439 17.2333 247.439 15.3C246.439 13.3 245.239 11.6333 243.839 10.3C242.439 8.9 240.772 7.86666 238.839 7.2C236.905 6.53333 234.572 6.2 231.839 6.2H215.239V37.1H221.739C223.939 37.1 225.805 36.9 227.339 36.5C228.872 36.1 230.172 35.3667 231.239 34.3C232.372 33.1667 233.305 31.6667 234.039 29.8C234.839 27.8667 235.605 25.4 236.339 22.4H237.439V53.5H236.339C235.872 51.5667 235.372 49.7 234.839 47.9C234.372 46.1 233.672 44.5 232.739 43.1C231.872 41.7 230.672 40.6 229.139 39.8C227.672 38.9333 225.739 38.5 223.339 38.5H215.239V74.6H234.139C237.805 74.6 240.839 73.8333 243.239 72.3C245.705 70.7 247.705 68.8333 249.239 66.7C250.772 64.5 251.905 62.2333 252.639 59.9C253.372 57.5667 253.839 55.6333 254.039 54.1H255.139V76H194.139V74.6ZM279.049 54.5H280.149C280.882 58.1 281.815 61.1333 282.949 63.6C284.149 66.0667 285.449 68.1 286.849 69.7C288.249 71.3 289.715 72.5333 291.249 73.4C292.782 74.2667 294.315 74.9 295.849 75.3C297.449 75.7 298.949 75.9333 300.349 76C301.815 76.0667 303.182 76.1 304.449 76.1C307.982 76.1 310.882 75.5667 313.149 74.5C315.415 73.4333 317.215 72.1 318.549 70.5C319.882 68.8333 320.815 67.0667 321.349 65.2C321.882 63.2667 322.149 61.5 322.149 59.9C322.149 57.5667 321.715 55.5667 320.849 53.9C319.982 52.2333 318.882 50.8333 317.549 49.7C316.215 48.5 314.749 47.5333 313.149 46.8C311.615 46.0667 310.149 45.5 308.749 45.1L297.249 41.6C291.849 39.9333 287.749 37.7333 284.949 35C282.215 32.2667 280.849 28.6 280.849 24C280.849 21 281.382 18.2333 282.449 15.7C283.515 13.1 285.015 10.8667 286.949 9C288.882 7.13333 291.182 5.66666 293.849 4.6C296.582 3.53333 299.549 3 302.749 3C305.082 3 307.015 3.2 308.549 3.6C310.149 4 311.515 4.46666 312.649 5C313.782 5.46666 314.782 5.9 315.649 6.3C316.582 6.7 317.515 6.9 318.449 6.9C319.315 6.9 319.882 6.8 320.149 6.6C320.482 6.33333 320.915 5.73333 321.449 4.8H322.849V22.9H321.649C321.249 20.5 320.549 18.2 319.549 16C318.615 13.7333 317.382 11.7667 315.849 10.1C314.315 8.36666 312.449 6.99999 310.249 6C308.115 4.93333 305.615 4.4 302.749 4.4C301.149 4.4 299.382 4.63333 297.449 5.09999C295.515 5.5 293.715 6.23333 292.049 7.3C290.382 8.36667 288.982 9.76667 287.849 11.5C286.782 13.2333 286.249 15.4333 286.249 18.1C286.249 20.2333 286.682 22.0667 287.549 23.6C288.415 25.0667 289.515 26.3333 290.849 27.4C292.249 28.4 293.782 29.2667 295.449 30C297.182 30.6667 298.915 31.2667 300.649 31.8L312.749 35.6C314.015 36 315.615 36.5333 317.549 37.2C319.482 37.8667 321.349 38.8667 323.149 40.2C325.015 41.5333 326.582 43.3 327.849 45.5C329.182 47.7 329.849 50.5 329.849 53.9C329.849 57.0333 329.249 60.0333 328.049 62.9C326.915 65.7 325.249 68.2 323.049 70.4C320.849 72.5333 318.182 74.2667 315.049 75.6C311.915 76.8667 308.382 77.5 304.449 77.5C303.049 77.5 301.815 77.4667 300.749 77.4C299.682 77.4 298.682 77.3333 297.749 77.2C296.815 77.0667 295.882 76.9 294.949 76.7C294.015 76.5667 292.982 76.3333 291.849 76C290.515 75.6 289.082 75.1333 287.549 74.6C286.015 74.0667 284.682 73.8 283.549 73.8C282.549 73.8 281.849 74 281.449 74.4C281.115 74.8 280.815 75.3333 280.549 76H279.049V54.5ZM366.348 74.6H377.448V6.2H371.648C370.315 6.2 368.815 6.33333 367.148 6.6C365.481 6.8 363.781 7.43333 362.048 8.5C360.381 9.56666 358.748 11.2667 357.148 13.6C355.615 15.8667 354.281 19.0333 353.148 23.1H352.048V4.8H412.848V23.1H411.748C410.615 19.0333 409.248 15.8667 407.648 13.6C406.115 11.2667 404.481 9.56666 402.748 8.5C401.081 7.43333 399.415 6.8 397.748 6.6C396.081 6.33333 394.581 6.2 393.248 6.2H387.448V74.6H398.548V76H366.348V74.6ZM429.607 74.6H440.707V6.2H429.607V4.8H486.807V22.1H485.707C484.841 19.5 483.907 17.2333 482.907 15.3C481.907 13.3 480.707 11.6333 479.307 10.3C477.907 8.9 476.241 7.86666 474.307 7.2C472.374 6.53333 470.041 6.2 467.307 6.2H450.707V37.1H457.207C459.407 37.1 461.274 36.9 462.807 36.5C464.341 36.1 465.641 35.3667 466.707 34.3C467.841 33.1667 468.774 31.6667 469.507 29.8C470.307 27.8667 471.074 25.4 471.807 22.4H472.907V53.5H471.807C471.341 51.5667 470.841 49.7 470.307 47.9C469.841 46.1 469.141 44.5 468.207 43.1C467.341 41.7 466.141 40.6 464.607 39.8C463.141 38.9333 461.207 38.5 458.807 38.5H450.707V74.6H469.607C473.274 74.6 476.307 73.8333 478.707 72.3C481.174 70.7 483.174 68.8333 484.707 66.7C486.241 64.5 487.374 62.2333 488.107 59.9C488.841 57.5667 489.307 55.6333 489.507 54.1H490.607V76H429.607V74.6ZM531.118 37.1H540.318C542.184 37.1 543.884 36.8667 545.418 36.4C546.951 35.9333 548.251 35.1333 549.318 34C550.451 32.8 551.318 31.2 551.918 29.2C552.518 27.2 552.818 24.6667 552.818 21.6C552.818 18.1333 552.351 15.3667 551.418 13.3C550.551 11.1667 549.384 9.56666 547.918 8.5C546.518 7.43333 544.918 6.73333 543.118 6.4C541.384 6.06666 539.651 5.9 537.918 5.9C536.718 5.9 535.484 5.93333 534.218 6C533.018 6 531.984 6.06666 531.118 6.2V37.1ZM510.018 74.6H521.118V6.2H510.018V4.8H529.018C529.818 4.8 530.618 4.8 531.418 4.8C532.218 4.73333 533.018 4.66666 533.818 4.6C534.618 4.6 535.418 4.6 536.218 4.6C537.018 4.53333 537.818 4.5 538.618 4.5C542.551 4.5 546.018 4.73333 549.018 5.2C552.018 5.6 554.818 6.83333 557.418 8.9C559.751 10.7 561.384 12.7333 562.318 15C563.318 17.2667 563.818 19.4 563.818 21.4C563.818 22.4 563.618 23.7 563.218 25.3C562.884 26.8333 562.084 28.4333 560.818 30.1C559.618 31.7 557.851 33.2 555.518 34.6C553.184 35.9333 550.084 36.8333 546.218 37.3V37.5C547.284 37.6333 548.718 37.9 550.518 38.3C552.384 38.6333 554.251 39.2333 556.118 40.1C558.051 40.9667 559.818 42.1333 561.418 43.6C563.018 45 564.151 46.8333 564.818 49.1C565.218 50.4333 565.484 51.9667 565.618 53.7C565.818 55.3667 565.951 57.1 566.018 58.9C566.151 60.7 566.251 62.4333 566.318 64.1C566.451 65.7667 566.651 67.1667 566.918 68.3C567.318 70.0333 567.951 71.6 568.818 73C569.684 74.4 571.084 75.1 573.018 75.1C573.884 75.1 574.784 74.9333 575.718 74.6C576.651 74.2667 577.484 73.7333 578.218 73L579.118 74.1C578.784 74.3667 578.384 74.6667 577.918 75C577.518 75.2667 576.984 75.5333 576.318 75.8C575.651 76.0667 574.818 76.2667 573.818 76.4C572.884 76.6 571.718 76.7 570.318 76.7C567.651 76.7 565.418 76.3667 563.618 75.7C561.884 75.0333 560.484 74.0667 559.418 72.8C558.351 71.4667 557.551 69.8667 557.018 68C556.551 66.0667 556.218 63.8333 556.018 61.3L555.318 52.2C555.051 48.8667 554.384 46.2667 553.318 44.4C552.251 42.5333 550.984 41.1667 549.518 40.3C548.118 39.4333 546.651 38.9333 545.118 38.8C543.584 38.6 542.251 38.5 541.118 38.5H531.118V74.6H542.218V76H510.018V74.6ZM613.286 74.6C614.419 74.7333 615.719 74.8333 617.186 74.9C618.719 74.9667 620.386 75 622.186 75C624.452 75 626.686 74.9 628.886 74.7C631.152 74.4333 633.286 73.9333 635.286 73.2C637.352 72.4 639.252 71.3 640.986 69.9C642.786 68.4333 644.386 66.5333 645.786 64.2C647.919 60.6 649.386 56.9333 650.186 53.2C651.052 49.4 651.486 45.2667 651.486 40.8C651.486 35.5333 650.986 30.7667 649.986 26.5C648.986 22.1667 647.319 18.5 644.986 15.5C642.719 12.4333 639.686 10.0667 635.886 8.39999C632.086 6.73333 627.386 5.9 621.786 5.9C620.119 5.9 618.586 5.93333 617.186 6C615.852 6.06666 614.552 6.13333 613.286 6.2V74.6ZM592.186 74.6H603.286V6.2H592.186V4.8H610.786C611.719 4.8 612.652 4.8 613.586 4.8C614.519 4.73333 615.452 4.66666 616.386 4.6C617.319 4.6 618.252 4.6 619.186 4.6C620.119 4.53333 621.052 4.5 621.986 4.5C623.986 4.5 625.752 4.53333 627.286 4.6C628.886 4.66666 630.352 4.79999 631.686 5C633.086 5.13333 634.386 5.36667 635.586 5.7C636.852 5.96666 638.186 6.33333 639.586 6.8C643.652 8.13333 647.152 9.93333 650.086 12.2C653.086 14.4 655.519 16.9667 657.386 19.9C659.319 22.8333 660.719 26.0333 661.586 29.5C662.519 32.9667 662.986 36.6 662.986 40.4C662.986 44.8 662.452 48.7667 661.386 52.3C660.319 55.7667 658.852 58.8667 656.986 61.6C655.119 64.2667 652.919 66.6 650.386 68.6C647.919 70.5333 645.252 72.1 642.386 73.3C640.786 74.0333 639.252 74.6 637.786 75C636.386 75.4 634.919 75.7 633.386 75.9C631.919 76.1 630.286 76.2333 628.486 76.3C626.686 76.3667 624.619 76.4 622.286 76.4C621.286 76.4 620.219 76.3667 619.086 76.3C617.952 76.3 616.819 76.2667 615.686 76.2C614.552 76.1333 613.419 76.0667 612.286 76C611.219 76 610.186 76 609.186 76H592.186V74.6ZM707.66 16.3L696.66 45.4H718.66L707.66 16.3ZM675.16 74.6H683.96L710.96 3H713.36L740.56 74.6H749.46V76H718.66V74.6H729.76L719.26 46.8H696.06L685.56 74.6H696.66V76H675.16V74.6ZM772.161 74.6H783.261V45.9L760.761 6.2H751.661V4.8H782.261V6.2H772.261L792.261 41.4L811.161 6.2H801.061V4.8H822.461V6.2H812.761L793.261 42.7V74.6H804.361V76H772.161V74.6ZM24.6625 140.2C25.9958 140.467 27.3958 140.667 28.8625 140.8C30.3292 140.933 31.6292 141 32.7625 141C37.6958 141 41.5292 139.567 44.2625 136.7C47.0625 133.767 48.4625 129.367 48.4625 123.5C48.4625 120.1 48.1292 117.267 47.4625 115C46.7958 112.733 45.7292 110.933 44.2625 109.6C42.8625 108.2 40.9958 107.233 38.6625 106.7C36.3958 106.167 33.6625 105.9 30.4625 105.9C29.1958 105.9 28.0292 105.933 26.9625 106C25.9625 106.067 25.1958 106.133 24.6625 106.2V140.2ZM3.5625 174.6H14.6625V106.2H3.5625V104.8H22.3625C23.2958 104.8 24.2292 104.8 25.1625 104.8C26.0958 104.733 27.0292 104.667 27.9625 104.6C28.8958 104.6 29.7958 104.6 30.6625 104.6C31.5958 104.533 32.5292 104.5 33.4625 104.5C37.2625 104.5 40.7625 104.967 43.9625 105.9C47.2292 106.767 50.0292 108.033 52.3625 109.7C54.7625 111.367 56.6292 113.367 57.9625 115.7C59.2958 118.033 59.9625 120.633 59.9625 123.5C59.9625 126.5 59.1958 129.167 57.6625 131.5C56.1292 133.833 54.0958 135.8 51.5625 137.4C49.0292 139 46.0625 140.233 42.6625 141.1C39.3292 141.967 35.8292 142.4 32.1625 142.4C31.2292 142.4 30.0292 142.333 28.5625 142.2C27.0958 142 25.7958 141.8 24.6625 141.6V174.6H35.7625V176H3.5625V174.6ZM78.4063 174.6H89.5063V106.2H78.4063V104.8H110.606V106.2H99.5063V138.9H132.806V106.2H121.706V104.8H153.906V106.2H142.806V174.6H153.906V176H121.706V174.6H132.806V140.3H99.5063V174.6H110.606V176H78.4063V174.6ZM185.249 140.3C185.249 146.3 185.649 151.533 186.449 156C187.249 160.467 188.583 164.2 190.449 167.2C192.316 170.2 194.716 172.433 197.649 173.9C200.583 175.367 204.216 176.1 208.549 176.1C212.816 176.1 216.416 175.367 219.349 173.9C222.349 172.433 224.783 170.2 226.649 167.2C228.516 164.2 229.849 160.467 230.649 156C231.449 151.533 231.849 146.3 231.849 140.3C231.849 135.7 231.549 131.267 230.949 127C230.349 122.667 229.183 118.833 227.449 115.5C225.783 112.1 223.416 109.4 220.349 107.4C217.349 105.4 213.416 104.4 208.549 104.4C203.683 104.4 199.716 105.4 196.649 107.4C193.649 109.4 191.283 112.1 189.549 115.5C187.883 118.833 186.749 122.667 186.149 127C185.549 131.267 185.249 135.7 185.249 140.3ZM173.749 140.3C173.749 134.967 174.783 130.033 176.849 125.5C178.983 120.967 181.683 117.033 184.949 113.7C188.283 110.367 192.016 107.767 196.149 105.9C200.283 103.967 204.416 103 208.549 103C212.949 103 217.216 103.967 221.349 105.9C225.549 107.767 229.283 110.367 232.549 113.7C235.816 117.033 238.416 120.967 240.349 125.5C242.349 130.033 243.349 134.967 243.349 140.3C243.349 144.967 242.449 149.533 240.649 154C238.849 158.467 236.383 162.433 233.249 165.9C230.116 169.367 226.416 172.167 222.149 174.3C217.949 176.433 213.416 177.5 208.549 177.5C203.549 177.5 198.916 176.467 194.649 174.4C190.383 172.333 186.683 169.6 183.549 166.2C180.483 162.733 178.083 158.767 176.349 154.3C174.616 149.767 173.749 145.1 173.749 140.3ZM277.276 174.6H288.376V106.2H282.576C281.242 106.2 279.742 106.333 278.076 106.6C276.409 106.8 274.709 107.433 272.976 108.5C271.309 109.567 269.676 111.267 268.076 113.6C266.542 115.867 265.209 119.033 264.076 123.1H262.976V104.8H323.776V123.1H322.676C321.542 119.033 320.176 115.867 318.576 113.6C317.042 111.267 315.409 109.567 313.676 108.5C312.009 107.433 310.342 106.8 308.676 106.6C307.009 106.333 305.509 106.2 304.176 106.2H298.376V174.6H309.476V176H277.276V174.6ZM354.859 140.3C354.859 146.3 355.259 151.533 356.059 156C356.859 160.467 358.192 164.2 360.059 167.2C361.925 170.2 364.325 172.433 367.259 173.9C370.192 175.367 373.825 176.1 378.159 176.1C382.425 176.1 386.025 175.367 388.959 173.9C391.959 172.433 394.392 170.2 396.259 167.2C398.125 164.2 399.459 160.467 400.259 156C401.059 151.533 401.459 146.3 401.459 140.3C401.459 135.7 401.159 131.267 400.559 127C399.959 122.667 398.792 118.833 397.059 115.5C395.392 112.1 393.025 109.4 389.959 107.4C386.959 105.4 383.025 104.4 378.159 104.4C373.292 104.4 369.325 105.4 366.259 107.4C363.259 109.4 360.892 112.1 359.159 115.5C357.492 118.833 356.359 122.667 355.759 127C355.159 131.267 354.859 135.7 354.859 140.3ZM343.359 140.3C343.359 134.967 344.392 130.033 346.459 125.5C348.592 120.967 351.292 117.033 354.559 113.7C357.892 110.367 361.625 107.767 365.759 105.9C369.892 103.967 374.025 103 378.159 103C382.559 103 386.825 103.967 390.959 105.9C395.159 107.767 398.892 110.367 402.159 113.7C405.425 117.033 408.025 120.967 409.959 125.5C411.959 130.033 412.959 134.967 412.959 140.3C412.959 144.967 412.059 149.533 410.259 154C408.459 158.467 405.992 162.433 402.859 165.9C399.725 169.367 396.025 172.167 391.759 174.3C387.559 176.433 383.025 177.5 378.159 177.5C373.159 177.5 368.525 176.467 364.259 174.4C359.992 172.333 356.292 169.6 353.159 166.2C350.092 162.733 347.692 158.767 345.959 154.3C344.225 149.767 343.359 145.1 343.359 140.3ZM507.162 150.5H499.162V173.2H497.962C497.228 172.467 496.628 171.967 496.162 171.7C495.695 171.433 494.962 171.3 493.962 171.3C492.762 171.3 491.528 171.633 490.262 172.3C489.062 172.9 487.628 173.6 485.962 174.4C484.362 175.2 482.462 175.9 480.262 176.5C478.062 177.167 475.395 177.5 472.262 177.5C467.528 177.5 463.328 176.733 459.662 175.2C455.995 173.6 452.462 171.1 449.062 167.7C445.728 164.367 442.962 160.433 440.762 155.9C438.562 151.367 437.462 146.267 437.462 140.6C437.462 136.8 437.895 133.4 438.762 130.4C439.628 127.333 440.662 124.667 441.862 122.4C443.128 120.133 444.395 118.233 445.662 116.7C446.995 115.167 448.095 113.967 448.962 113.1C451.962 110.1 455.395 107.667 459.262 105.8C463.128 103.933 467.528 103 472.462 103C474.995 103 477.062 103.2 478.662 103.6C480.328 104 481.762 104.467 482.962 105C484.162 105.467 485.228 105.9 486.162 106.3C487.162 106.7 488.262 106.9 489.462 106.9C490.795 106.9 491.728 106.733 492.262 106.4C492.862 106 493.428 105.467 493.962 104.8H495.462V124.8H494.362C494.095 123.067 493.562 121.033 492.762 118.7C492.028 116.367 490.828 114.133 489.162 112C487.562 109.867 485.395 108.067 482.662 106.6C479.995 105.133 476.562 104.4 472.362 104.4C467.362 104.4 463.328 105.467 460.262 107.6C457.262 109.667 454.895 112.433 453.162 115.9C451.495 119.3 450.362 123.167 449.762 127.5C449.228 131.833 448.962 136.2 448.962 140.6C448.962 143.6 449.095 146.6 449.362 149.6C449.628 152.6 450.062 155.433 450.662 158.1C451.328 160.767 452.228 163.233 453.362 165.5C454.495 167.767 455.962 169.7 457.762 171.3C459.762 173.1 461.828 174.367 463.962 175.1C466.095 175.767 468.862 176.1 472.262 176.1C474.328 176.1 476.395 175.767 478.462 175.1C480.528 174.367 482.362 173.3 483.962 171.9C485.628 170.5 486.962 168.733 487.962 166.6C489.028 164.4 489.562 161.833 489.562 158.9V150.5H476.662V149.1H507.162V150.5ZM543.452 137.1H552.652C554.518 137.1 556.218 136.867 557.752 136.4C559.285 135.933 560.585 135.133 561.652 134C562.785 132.8 563.652 131.2 564.252 129.2C564.852 127.2 565.152 124.667 565.152 121.6C565.152 118.133 564.685 115.367 563.752 113.3C562.885 111.167 561.718 109.567 560.252 108.5C558.852 107.433 557.252 106.733 555.452 106.4C553.718 106.067 551.985 105.9 550.252 105.9C549.052 105.9 547.818 105.933 546.552 106C545.352 106 544.318 106.067 543.452 106.2V137.1ZM522.352 174.6H533.452V106.2H522.352V104.8H541.352C542.152 104.8 542.952 104.8 543.752 104.8C544.552 104.733 545.352 104.667 546.152 104.6C546.952 104.6 547.752 104.6 548.552 104.6C549.352 104.533 550.152 104.5 550.952 104.5C554.885 104.5 558.352 104.733 561.352 105.2C564.352 105.6 567.152 106.833 569.752 108.9C572.085 110.7 573.718 112.733 574.652 115C575.652 117.267 576.152 119.4 576.152 121.4C576.152 122.4 575.952 123.7 575.552 125.3C575.218 126.833 574.418 128.433 573.152 130.1C571.952 131.7 570.185 133.2 567.852 134.6C565.518 135.933 562.418 136.833 558.552 137.3V137.5C559.618 137.633 561.052 137.9 562.852 138.3C564.718 138.633 566.585 139.233 568.452 140.1C570.385 140.967 572.152 142.133 573.752 143.6C575.352 145 576.485 146.833 577.152 149.1C577.552 150.433 577.818 151.967 577.952 153.7C578.152 155.367 578.285 157.1 578.352 158.9C578.485 160.7 578.585 162.433 578.652 164.1C578.785 165.767 578.985 167.167 579.252 168.3C579.652 170.033 580.285 171.6 581.152 173C582.018 174.4 583.418 175.1 585.352 175.1C586.218 175.1 587.118 174.933 588.052 174.6C588.985 174.267 589.818 173.733 590.552 173L591.452 174.1C591.118 174.367 590.718 174.667 590.252 175C589.852 175.267 589.318 175.533 588.652 175.8C587.985 176.067 587.152 176.267 586.152 176.4C585.218 176.6 584.052 176.7 582.652 176.7C579.985 176.7 577.752 176.367 575.952 175.7C574.218 175.033 572.818 174.067 571.752 172.8C570.685 171.467 569.885 169.867 569.352 168C568.885 166.067 568.552 163.833 568.352 161.3L567.652 152.2C567.385 148.867 566.718 146.267 565.652 144.4C564.585 142.533 563.318 141.167 561.852 140.3C560.452 139.433 558.985 138.933 557.452 138.8C555.918 138.6 554.585 138.5 553.452 138.5H543.452V174.6H554.552V176H522.352V174.6ZM633.92 116.3L622.92 145.4H644.92L633.92 116.3ZM601.42 174.6H610.22L637.22 103H639.62L666.82 174.6H675.72V176H644.92V174.6H656.02L645.52 146.8H622.32L611.82 174.6H622.92V176H601.42V174.6ZM709.741 140.2C711.074 140.467 712.474 140.667 713.941 140.8C715.407 140.933 716.707 141 717.841 141C722.774 141 726.607 139.567 729.341 136.7C732.141 133.767 733.541 129.367 733.541 123.5C733.541 120.1 733.207 117.267 732.541 115C731.874 112.733 730.807 110.933 729.341 109.6C727.941 108.2 726.074 107.233 723.741 106.7C721.474 106.167 718.741 105.9 715.541 105.9C714.274 105.9 713.107 105.933 712.041 106C711.041 106.067 710.274 106.133 709.741 106.2V140.2ZM688.641 174.6H699.741V106.2H688.641V104.8H707.441C708.374 104.8 709.307 104.8 710.241 104.8C711.174 104.733 712.107 104.667 713.041 104.6C713.974 104.6 714.874 104.6 715.741 104.6C716.674 104.533 717.607 104.5 718.541 104.5C722.341 104.5 725.841 104.967 729.041 105.9C732.307 106.767 735.107 108.033 737.441 109.7C739.841 111.367 741.707 113.367 743.041 115.7C744.374 118.033 745.041 120.633 745.041 123.5C745.041 126.5 744.274 129.167 742.741 131.5C741.207 133.833 739.174 135.8 736.641 137.4C734.107 139 731.141 140.233 727.741 141.1C724.407 141.967 720.907 142.4 717.241 142.4C716.307 142.4 715.107 142.333 713.641 142.2C712.174 142 710.874 141.8 709.741 141.6V174.6H720.841V176H688.641V174.6ZM763.484 174.6H774.584V106.2H763.484V104.8H795.684V106.2H784.584V138.9H817.884V106.2H806.784V104.8H838.984V106.2H827.884V174.6H838.984V176H806.784V174.6H817.884V140.3H784.584V174.6H795.684V176H763.484V174.6ZM872.327 174.6H883.427V145.9L860.927 106.2H851.827V104.8H882.427V106.2H872.427L892.427 141.4L911.327 106.2H901.227V104.8H922.627V106.2H912.927L893.427 142.7V174.6H904.527V176H872.327V174.6ZM241.773 254.5H242.873C243.607 258.1 244.54 261.133 245.673 263.6C246.873 266.067 248.173 268.1 249.573 269.7C250.973 271.3 252.44 272.533 253.973 273.4C255.507 274.267 257.04 274.9 258.573 275.3C260.173 275.7 261.673 275.933 263.073 276C264.54 276.067 265.907 276.1 267.173 276.1C270.707 276.1 273.607 275.567 275.873 274.5C278.14 273.433 279.94 272.1 281.273 270.5C282.607 268.833 283.54 267.067 284.073 265.2C284.607 263.267 284.873 261.5 284.873 259.9C284.873 257.567 284.44 255.567 283.573 253.9C282.707 252.233 281.607 250.833 280.273 249.7C278.94 248.5 277.473 247.533 275.873 246.8C274.34 246.067 272.873 245.5 271.473 245.1L259.973 241.6C254.573 239.933 250.473 237.733 247.673 235C244.94 232.267 243.573 228.6 243.573 224C243.573 221 244.107 218.233 245.173 215.7C246.24 213.1 247.74 210.867 249.673 209C251.607 207.133 253.907 205.667 256.573 204.6C259.307 203.533 262.273 203 265.473 203C267.807 203 269.74 203.2 271.273 203.6C272.873 204 274.24 204.467 275.373 205C276.507 205.467 277.507 205.9 278.373 206.3C279.307 206.7 280.24 206.9 281.173 206.9C282.04 206.9 282.607 206.8 282.873 206.6C283.207 206.333 283.64 205.733 284.173 204.8H285.573V222.9H284.373C283.973 220.5 283.273 218.2 282.273 216C281.34 213.733 280.107 211.767 278.573 210.1C277.04 208.367 275.173 207 272.973 206C270.84 204.933 268.34 204.4 265.473 204.4C263.873 204.4 262.107 204.633 260.173 205.1C258.24 205.5 256.44 206.233 254.773 207.3C253.107 208.367 251.707 209.767 250.573 211.5C249.507 213.233 248.973 215.433 248.973 218.1C248.973 220.233 249.407 222.067 250.273 223.6C251.14 225.067 252.24 226.333 253.573 227.4C254.973 228.4 256.507 229.267 258.173 230C259.907 230.667 261.64 231.267 263.373 231.8L275.473 235.6C276.74 236 278.34 236.533 280.273 237.2C282.207 237.867 284.073 238.867 285.873 240.2C287.74 241.533 289.307 243.3 290.573 245.5C291.907 247.7 292.573 250.5 292.573 253.9C292.573 257.033 291.973 260.033 290.773 262.9C289.64 265.7 287.973 268.2 285.773 270.4C283.573 272.533 280.907 274.267 277.773 275.6C274.64 276.867 271.107 277.5 267.173 277.5C265.773 277.5 264.54 277.467 263.473 277.4C262.407 277.4 261.407 277.333 260.473 277.2C259.54 277.067 258.607 276.9 257.673 276.7C256.74 276.567 255.707 276.333 254.573 276C253.24 275.6 251.807 275.133 250.273 274.6C248.74 274.067 247.407 273.8 246.273 273.8C245.273 273.8 244.573 274 244.173 274.4C243.84 274.8 243.54 275.333 243.273 276H241.773V254.5ZM329.073 274.6H340.173V206.2H334.373C333.039 206.2 331.539 206.333 329.873 206.6C328.206 206.8 326.506 207.433 324.773 208.5C323.106 209.567 321.473 211.267 319.873 213.6C318.339 215.867 317.006 219.033 315.873 223.1H314.773V204.8H375.573V223.1H374.473C373.339 219.033 371.973 215.867 370.373 213.6C368.839 211.267 367.206 209.567 365.473 208.5C363.806 207.433 362.139 206.8 360.473 206.6C358.806 206.333 357.306 206.2 355.973 206.2H350.173V274.6H361.273V276H329.073V274.6ZM391.432 204.8H423.632V206.2H412.532V254.5C412.532 258.5 412.865 261.9 413.532 264.7C414.265 267.433 415.332 269.667 416.732 271.4C418.132 273.067 419.865 274.267 421.932 275C423.999 275.733 426.365 276.1 429.032 276.1C432.765 276.1 436.065 275.567 438.932 274.5C441.799 273.367 444.265 271.4 446.332 268.6C446.999 267.733 447.565 266.867 448.032 266C448.565 265.133 448.999 264.133 449.332 263C449.732 261.8 450.032 260.4 450.232 258.8C450.432 257.133 450.532 255.1 450.532 252.7V206.2H439.432V204.8H463.132V206.2H452.032V254.7C452.032 257.5 451.732 260.067 451.132 262.4C450.532 264.667 449.299 267.033 447.432 269.5C445.632 271.9 443.132 273.833 439.932 275.3C436.732 276.767 432.499 277.5 427.232 277.5C419.232 277.5 413.099 275.533 408.832 271.6C404.632 267.667 402.532 261.633 402.532 253.5V206.2H391.432V204.8ZM499.311 274.6C500.444 274.733 501.744 274.833 503.211 274.9C504.744 274.967 506.411 275 508.211 275C510.478 275 512.711 274.9 514.911 274.7C517.178 274.433 519.311 273.933 521.311 273.2C523.378 272.4 525.278 271.3 527.011 269.9C528.811 268.433 530.411 266.533 531.811 264.2C533.944 260.6 535.411 256.933 536.211 253.2C537.078 249.4 537.511 245.267 537.511 240.8C537.511 235.533 537.011 230.767 536.011 226.5C535.011 222.167 533.344 218.5 531.011 215.5C528.744 212.433 525.711 210.067 521.911 208.4C518.111 206.733 513.411 205.9 507.811 205.9C506.144 205.9 504.611 205.933 503.211 206C501.878 206.067 500.578 206.133 499.311 206.2V274.6ZM478.211 274.6H489.311V206.2H478.211V204.8H496.811C497.744 204.8 498.678 204.8 499.611 204.8C500.544 204.733 501.478 204.667 502.411 204.6C503.344 204.6 504.278 204.6 505.211 204.6C506.144 204.533 507.078 204.5 508.011 204.5C510.011 204.5 511.778 204.533 513.311 204.6C514.911 204.667 516.378 204.8 517.711 205C519.111 205.133 520.411 205.367 521.611 205.7C522.878 205.967 524.211 206.333 525.611 206.8C529.678 208.133 533.178 209.933 536.111 212.2C539.111 214.4 541.544 216.967 543.411 219.9C545.344 222.833 546.744 226.033 547.611 229.5C548.544 232.967 549.011 236.6 549.011 240.4C549.011 244.8 548.478 248.767 547.411 252.3C546.344 255.767 544.878 258.867 543.011 261.6C541.144 264.267 538.944 266.6 536.411 268.6C533.944 270.533 531.278 272.1 528.411 273.3C526.811 274.033 525.278 274.6 523.811 275C522.411 275.4 520.944 275.7 519.411 275.9C517.944 276.1 516.311 276.233 514.511 276.3C512.711 276.367 510.644 276.4 508.311 276.4C507.311 276.4 506.244 276.367 505.111 276.3C503.978 276.3 502.844 276.267 501.711 276.2C500.578 276.133 499.444 276.067 498.311 276C497.244 276 496.211 276 495.211 276H478.211V274.6ZM570.054 274.6H581.154V206.2H570.054V204.8H602.254V206.2H591.154V274.6H602.254V276H570.054V274.6ZM633.823 240.3C633.823 246.3 634.223 251.533 635.023 256C635.823 260.467 637.157 264.2 639.023 267.2C640.89 270.2 643.29 272.433 646.223 273.9C649.157 275.367 652.79 276.1 657.123 276.1C661.39 276.1 664.99 275.367 667.923 273.9C670.923 272.433 673.357 270.2 675.223 267.2C677.09 264.2 678.423 260.467 679.223 256C680.023 251.533 680.423 246.3 680.423 240.3C680.423 235.7 680.123 231.267 679.523 227C678.923 222.667 677.757 218.833 676.023 215.5C674.357 212.1 671.99 209.4 668.923 207.4C665.923 205.4 661.99 204.4 657.123 204.4C652.257 204.4 648.29 205.4 645.223 207.4C642.223 209.4 639.857 212.1 638.123 215.5C636.457 218.833 635.323 222.667 634.723 227C634.123 231.267 633.823 235.7 633.823 240.3ZM622.323 240.3C622.323 234.967 623.357 230.033 625.423 225.5C627.557 220.967 630.257 217.033 633.523 213.7C636.857 210.367 640.59 207.767 644.723 205.9C648.857 203.967 652.99 203 657.123 203C661.523 203 665.79 203.967 669.923 205.9C674.123 207.767 677.857 210.367 681.123 213.7C684.39 217.033 686.99 220.967 688.923 225.5C690.923 230.033 691.923 234.967 691.923 240.3C691.923 244.967 691.023 249.533 689.223 254C687.423 258.467 684.957 262.433 681.823 265.9C678.69 269.367 674.99 272.167 670.723 274.3C666.523 276.433 661.99 277.5 657.123 277.5C652.123 277.5 647.49 276.467 643.223 274.4C638.957 272.333 635.257 269.6 632.123 266.2C629.057 262.733 626.657 258.767 624.923 254.3C623.19 249.767 622.323 245.1 622.323 240.3Z" fill="white"/>
</g>
<defs>
<filter id="filter0_d_982_164" x="0.5625" y="0" width="927.065" height="282.5" filterUnits="userSpaceOnUse" color-interpolation-filters="sRGB">
<feFlood flood-opacity="0" result="BackgroundImageFix"/>
<feColorMatrix in="SourceAlpha" type="matrix" values="0 0 0 0 0 0 0 0 0 0 0 0 0 0 0 0 0 0 127 0" result="hardAlpha"/>
<feOffset dx="1" dy="1"/>
<feGaussianBlur stdDeviation="2"/>
<feComposite in2="hardAlpha" operator="out"/>
<feColorMatrix type="matrix" values="0 0 0 0 0 0 0 0 0 0 0 0 0 0 0 0 0 0 0.25 0"/>
<feBlend mode="normal" in2="BackgroundImageFix" result="effect1_dropShadow_982_164"/>
<feBlend mode="normal" in="SourceGraphic" in2="effect1_dropShadow_982_164" result="shape"/>
</filter>
</defs>
</svg>
