<?xml version="1.0" encoding="utf-8"?>
<!-- Generator: Adobe Illustrator 24.3.0, SVG Export Plug-In . SVG Version: 6.00 Build 0)  -->
<svg version="1.1" xmlns="http://www.w3.org/2000/svg" xmlns:xlink="http://www.w3.org/1999/xlink" x="0px" y="0px"
	 viewBox="0 0 460.8 259.2" style="enable-background:new 0 0 460.8 259.2;" xml:space="preserve">
<style type="text/css">
	.st0{fill:#FFFFFF;}
</style>
<g id="背景_xA0_影像_1_">
</g>
<g id="背面_xA0_影像_1_">
	<g>
		<path class="st0" d="M190.63,130.44c0-12.8,0-25.6,0-38.4c16.4,0,32.8,0,49.2,0c0,12.8,0,25.6,0,38.4
			C223.43,130.44,207.03,130.44,190.63,130.44z M225.8,107.12c2.41,1.53,2.37,4.1,2.34,6.59c0.86-0.04,1.54-0.14,2.21-0.09
			c2.72,0.21,4.8,3.42,3.79,5.8c-0.74,1.76-1.66,3.48-2.15,5.3c-0.52,1.93-1.6,2.61-3.48,2.59c-1.44-0.01-2.84,0.21-3.92,1.42
			c-0.36,0.4-1.09,0.63-1.66,0.63c-8.68,0.08-17.35,0.1-26.03,0.14c-2.02,0.01-3.9-1.86-3.88-3.89c0.04-4.92,0.09-9.83,0.15-14.75
			c0.03-2.44,1.34-3.73,3.74-3.72c0.36,0,0.72-0.03,1.08,0.02c0.71,0.09,1.07-0.23,1.35-0.87c0.93-2.12,1.94-4.21,2.87-6.33
			c0.33-0.74,0.71-1.3,1.58-1.45c0.28-0.05,0.71-0.38,0.73-0.61c0.08-1.01,0.03-2.03,0.03-3.04c-0.2-0.14-0.39-0.27-0.59-0.41
			c-0.25,0.44-0.49,0.89-0.75,1.33c-0.94,1.61-1.96,3.19-2.81,4.85c-0.47,0.91-1,1.44-2.06,1.52c-1.66,0.12-3.07,0.88-4.2,2.08
			c-0.67,0.71-1.59,1.48-1.73,2.33c-0.5,3.05-0.93,6.14-0.99,9.22c-0.07,3.78,0.27,7.57,0.42,11.35c0.07,1.83,0.84,2.58,2.67,2.58
			c13.83,0,27.67,0,41.5,0c2.22,0,3.07-0.64,3.04-2.85c-0.09-6.73,0.56-13.48-0.67-20.17c-0.45-2.45-2.69-4.33-5.2-4.32
			c-3.83,0.01-7.66-0.12-11.49-0.06c-1.43,0.02-2.17-0.67-2.8-1.76c-0.85-1.49-1.71-2.98-2.62-4.43c-0.34-0.54-0.83-0.98-1.26-1.46
			c-0.11,0.05-0.21,0.09-0.32,0.14c0,0.78,0.04,1.56-0.01,2.33c-0.06,0.89,0.23,1.38,1.19,1.31c1.05-0.07,1.54,0.5,1.87,1.45
			c0.76,2.19,1.61,4.35,2.45,6.51c0.1,0.27,0.34,0.67,0.53,0.68C222.42,107.14,224.12,107.12,225.8,107.12z M232.24,121.81
			c-0.41,0.08-0.56,0.09-0.71,0.13c-2.25,0.65-4.05,0.13-5.24-1.51c-1.17-1.62-1.1-3.35,0.18-5.34c0.18-0.28,0.29-0.66,0.28-0.99
			c-0.03-1.16-0.1-2.32-0.19-3.47c-0.13-1.68-1.58-2.9-3.26-2.89c-8.71,0.02-17.43,0.02-26.14,0c-1.93,0-3.17,1.13-3.19,3.1
			c-0.05,4.84-0.1,9.67-0.14,14.51c-0.01,1.84,1.02,2.85,2.9,2.85c8.47,0,16.95-0.02,25.42-0.01c1.23,0,2.37-0.03,3.29-1.04
			c0.26-0.28,0.79-0.36,1.21-0.43c1.03-0.16,2.07-0.2,3.09-0.39c0.36-0.07,0.84-0.34,0.98-0.65
			C231.26,124.5,231.69,123.25,232.24,121.81z M199.41,107.06c6.97,0,13.69,0,20.57,0c-1-2.57-1.93-4.99-2.91-7.38
			c-0.12-0.28-0.57-0.59-0.87-0.6c-3.67-0.1-7.35-0.19-11.02-0.18c-0.74,0-1.86,0.25-2.14,0.75
			C201.72,102.02,200.63,104.5,199.41,107.06z M213.88,98.45c0-0.73-0.02-1.32,0-1.92c0.04-1.01-0.36-1.42-1.42-1.36
			c-1.63,0.09-3.27,0.05-4.91,0.06c-2.3,0.01-2.53,0.26-2.15,2.56c0.04,0.25,0.4,0.63,0.62,0.64
			C208.61,98.47,211.19,98.45,213.88,98.45z M229.86,114.07c-2.13,0-3.79,1.67-3.79,3.8c0,2.13,1.66,3.8,3.79,3.8
			c2.12,0,3.8-1.69,3.8-3.81C233.66,115.73,232,114.07,229.86,114.07z M221,101.4c2.61,0,5.26,0,7.97,0
			c-0.04-0.47-0.07-0.81-0.12-1.44c-2.32,0-4.58,0.04-6.84-0.02C220.95,99.92,220.63,100.29,221,101.4z M206.09,94.28
			c2.29,0,4.55,0.03,6.8-0.05c0.22-0.01,0.41-0.66,0.74-1.22c-2.75,0-5.11,0-7.54,0C206.09,93.5,206.09,93.84,206.09,94.28z"/>
		<path d="M225.8,107.12c-1.68,0-3.37,0.02-5.07-0.03c-0.19-0.01-0.43-0.41-0.53-0.68c-0.84-2.16-1.69-4.32-2.45-6.51
			c-0.33-0.95-0.82-1.52-1.87-1.45c-0.96,0.07-1.25-0.42-1.19-1.31c0.05-0.77,0.01-1.56,0.01-2.33c0.11-0.05,0.21-0.09,0.32-0.14
			c0.42,0.48,0.92,0.92,1.26,1.46c0.91,1.45,1.77,2.94,2.62,4.43c0.63,1.09,1.37,1.78,2.8,1.76c3.83-0.06,7.66,0.06,11.49,0.06
			c2.51-0.01,4.75,1.88,5.2,4.32c1.23,6.69,0.58,13.44,0.67,20.17c0.03,2.21-0.82,2.85-3.04,2.85c-13.83,0-27.67,0-41.5,0
			c-1.83,0-2.6-0.75-2.67-2.58c-0.15-3.78-0.49-7.57-0.42-11.35c0.06-3.08,0.49-6.17,0.99-9.22c0.14-0.85,1.06-1.62,1.73-2.33
			c1.13-1.19,2.54-1.96,4.2-2.08c1.06-0.07,1.59-0.61,2.06-1.52c0.85-1.66,1.87-3.24,2.81-4.85c0.26-0.44,0.5-0.89,0.75-1.33
			c0.2,0.14,0.39,0.27,0.59,0.41c0,1.02,0.05,2.03-0.03,3.04c-0.02,0.23-0.45,0.56-0.73,0.61c-0.87,0.15-1.25,0.71-1.58,1.45
			c-0.93,2.12-1.95,4.21-2.87,6.33c-0.28,0.65-0.64,0.96-1.35,0.87c-0.35-0.04-0.72-0.01-1.08-0.02c-2.4-0.02-3.71,1.28-3.74,3.72
			c-0.06,4.92-0.1,9.83-0.15,14.75c-0.02,2.02,1.87,3.89,3.88,3.89c8.68-0.04,17.35-0.06,26.03-0.14c0.56,0,1.3-0.24,1.66-0.63
			c1.08-1.21,2.49-1.43,3.92-1.42c1.88,0.01,2.96-0.66,3.48-2.59c0.49-1.83,1.41-3.54,2.15-5.3c1-2.39-1.07-5.59-3.79-5.8
			c-0.67-0.05-1.34,0.05-2.21,0.09C228.17,111.22,228.21,108.65,225.8,107.12z M227.37,105.92c2.48,0,4.77,0,7.17,0
			c-0.25-0.82-0.47-1.57-0.71-2.34c-1.94,0-3.8,0-5.74,0C227.85,104.33,227.63,105.08,227.37,105.92z M223.98,103.07
			c-0.42,0.64-0.84,0.99-0.79,1.26c0.07,0.35,0.5,0.64,0.78,0.95c0.25-0.29,0.66-0.56,0.7-0.87
			C224.7,104.1,224.34,103.75,223.98,103.07z"/>
		<path d="M232.24,121.81c-0.55,1.44-0.98,2.69-1.52,3.88c-0.14,0.31-0.61,0.58-0.98,0.65c-1.02,0.19-2.06,0.24-3.09,0.39
			c-0.42,0.06-0.95,0.15-1.21,0.43c-0.92,1.01-2.07,1.04-3.29,1.04c-8.47-0.01-16.95,0.01-25.42,0.01c-1.88,0-2.91-1.01-2.9-2.85
			c0.03-4.84,0.08-9.67,0.14-14.51c0.02-1.97,1.26-3.1,3.19-3.1c8.71,0.02,17.43,0.02,26.14,0c1.68,0,3.13,1.21,3.26,2.89
			c0.09,1.15,0.16,2.31,0.19,3.47c0.01,0.33-0.1,0.71-0.28,0.99c-1.28,1.99-1.36,3.72-0.18,5.34c1.19,1.64,2.99,2.16,5.24,1.51
			C231.67,121.91,231.83,121.89,232.24,121.81z M198.09,127.5c8.21,0,16.3,0,24.42,0c0-6.34,0-12.59,0-18.86
			c-8.18,0-16.27,0-24.42,0C198.09,114.94,198.09,121.17,198.09,127.5z M226.8,126.4c0.18,0,0.37,0,0.55,0
			c0.37-0.51,0.98-0.99,1.06-1.55c0.13-0.86-0.49-1.4-1.39-1.38c-0.84,0.02-1.41,0.6-1.28,1.38
			C225.83,125.41,226.42,125.89,226.8,126.4z M197.27,124.35c-0.69-0.47-1.11-0.98-1.51-0.97c-0.34,0.01-0.67,0.61-1,0.95
			c0.36,0.35,0.68,0.9,1.09,0.98C196.17,125.38,196.6,124.84,197.27,124.35z M197.3,110.62c-0.73-0.43-1.17-0.91-1.56-0.87
			c-0.34,0.03-0.63,0.64-0.94,0.99c0.38,0.33,0.73,0.85,1.14,0.91C196.25,111.7,196.65,111.15,197.3,110.62z M197.27,114.95
			c-0.67-0.5-1.09-1.04-1.41-0.99c-0.41,0.08-0.74,0.63-1.11,0.97c0.33,0.34,0.65,0.95,0.99,0.96
			C196.15,115.92,196.58,115.42,197.27,114.95z M195.76,121.03c0.5-0.6,1.07-0.98,1.03-1.29c-0.05-0.41-0.58-0.76-0.9-1.14
			c-0.36,0.34-0.92,0.64-1.02,1.04C194.8,119.94,195.32,120.39,195.76,121.03z"/>
		<path d="M199.41,107.06c1.22-2.56,2.31-5.05,3.62-7.4c0.28-0.5,1.4-0.75,2.14-0.75c3.67-0.02,7.35,0.07,11.02,0.18
			c0.3,0.01,0.76,0.32,0.87,0.6c0.98,2.39,1.91,4.81,2.91,7.38C213.1,107.06,206.38,107.06,199.41,107.06z M206.01,105.9
			c2.55,0,4.96,0,7.35,0c0-1.54,0-2.99,0-4.43c-2.5,0-4.92,0-7.35,0C206.01,102.98,206.01,104.41,206.01,105.9z"/>
		<path d="M213.88,98.45c-2.69,0-5.28,0.02-7.86-0.03c-0.22,0-0.58-0.39-0.62-0.64c-0.37-2.3-0.15-2.54,2.15-2.56
			c1.64-0.01,3.28,0.03,4.91-0.06c1.06-0.06,1.46,0.35,1.42,1.36C213.86,97.13,213.88,97.73,213.88,98.45z"/>
		<path d="M229.86,114.07c2.13,0,3.8,1.66,3.8,3.79c0.01,2.11-1.68,3.81-3.8,3.81c-2.13,0-3.8-1.67-3.79-3.8
			C226.08,115.73,227.74,114.07,229.86,114.07z M232.72,117.9c0.01-1.64-1.24-2.89-2.88-2.88c-1.58,0.01-2.8,1.23-2.82,2.82
			c-0.02,1.63,1.25,2.9,2.88,2.88C231.48,120.71,232.71,119.48,232.72,117.9z"/>
		<path d="M221,101.4c-0.37-1.11-0.04-1.48,1.01-1.46c2.26,0.05,4.52,0.02,6.84,0.02c0.05,0.63,0.08,0.97,0.12,1.44
			C226.25,101.4,223.61,101.4,221,101.4z"/>
		<path d="M206.09,94.28c0-0.43,0-0.77,0-1.27c2.43,0,4.78,0,7.54,0c-0.33,0.57-0.52,1.22-0.74,1.22
			C210.64,94.3,208.38,94.28,206.09,94.28z"/>
		<path class="st0" d="M227.37,105.92c0.26-0.84,0.49-1.59,0.72-2.34c1.94,0,3.81,0,5.74,0c0.23,0.77,0.46,1.52,0.71,2.34
			C232.14,105.92,229.85,105.92,227.37,105.92z"/>
		<path class="st0" d="M223.98,103.07c0.37,0.67,0.72,1.02,0.69,1.33c-0.04,0.31-0.45,0.58-0.7,0.87c-0.28-0.31-0.71-0.6-0.78-0.95
			C223.13,104.06,223.55,103.71,223.98,103.07z"/>
		<path class="st0" d="M198.09,127.5c0-6.33,0-12.55,0-18.86c8.15,0,16.25,0,24.42,0c0,6.27,0,12.52,0,18.86
			C214.4,127.5,206.3,127.5,198.09,127.5z"/>
		<path class="st0" d="M226.8,126.4c-0.37-0.51-0.97-0.99-1.06-1.55c-0.13-0.77,0.44-1.35,1.28-1.38c0.9-0.03,1.52,0.52,1.39,1.38
			c-0.09,0.56-0.69,1.04-1.06,1.55C227.16,126.4,226.98,126.4,226.8,126.4z"/>
		<path class="st0" d="M197.27,124.35c-0.67,0.49-1.1,1.03-1.41,0.97c-0.41-0.08-0.73-0.63-1.09-0.98c0.33-0.34,0.66-0.94,1-0.95
			C196.16,123.37,196.58,123.88,197.27,124.35z"/>
		<path class="st0" d="M197.3,110.62c-0.65,0.52-1.05,1.08-1.36,1.04c-0.41-0.06-0.76-0.58-1.14-0.91c0.31-0.35,0.6-0.96,0.94-0.99
			C196.13,109.72,196.57,110.19,197.3,110.62z"/>
		<path class="st0" d="M197.27,114.95c-0.7,0.47-1.12,0.97-1.52,0.95c-0.34-0.01-0.66-0.62-0.99-0.96c0.36-0.35,0.69-0.9,1.11-0.97
			C196.18,113.91,196.61,114.46,197.27,114.95z"/>
		<path class="st0" d="M195.76,121.03c-0.44-0.64-0.96-1.09-0.89-1.39c0.1-0.4,0.66-0.7,1.02-1.04c0.32,0.38,0.85,0.73,0.9,1.14
			C196.83,120.04,196.26,120.43,195.76,121.03z"/>
		<path class="st0" d="M206.01,105.9c0-1.49,0-2.92,0-4.43c2.44,0,4.85,0,7.35,0c0,1.43,0,2.89,0,4.43
			C210.97,105.9,208.56,105.9,206.01,105.9z"/>
		<path class="st0" d="M232.72,117.9c-0.01,1.58-1.24,2.81-2.82,2.82c-1.63,0.02-2.9-1.26-2.88-2.88c0.02-1.59,1.24-2.81,2.82-2.82
			C231.48,115.01,232.73,116.26,232.72,117.9z"/>
	</g>
</g>
</svg>
