<?xml version="1.0" encoding="utf-8"?>
<!-- Generator: Adobe Illustrator 24.3.0, SVG Export Plug-In . SVG Version: 6.00 Build 0)  -->
<svg version="1.1" xmlns="http://www.w3.org/2000/svg" xmlns:xlink="http://www.w3.org/1999/xlink" x="0px" y="0px"
	 viewBox="0 0 460.8 259.2" style="enable-background:new 0 0 460.8 259.2;" xml:space="preserve">
<style type="text/css">
	.st0{fill:#FFFFFF;}
</style>
<g id="背景_xA0_影像_1_">
</g>
<g id="底_xA0_影像_1_">
	<g>
		<path class="st0" d="M244.96,146.67c-16.17,0-32.33,0-48.48,0c0-18.89,0-37.77,0-56.64c16.17,0,32.33,0,48.48,0
			C244.96,108.92,244.96,127.8,244.96,146.67z M197.16,137.14c0.15,1.66,0.25,3.24,0.46,4.81c0.1,0.75,0.23,1.65,0.69,2.18
			c0.83,0.98,1.95,1.49,3.37,1.49c12.72,0,25.43,0.08,38.15,0.13c1.67,0.01,3.44-1.3,3.63-2.93c0.26-2.34,0.41-4.7,0.47-7.05
			c0.05-1.93-0.65-3.47-2.66-4.19c-0.31-0.11-0.6-0.72-0.61-1.11c-0.09-1.79,0.34-3.67-1.53-5.27c-0.48,0.25-1.17,0.61-1.66,0.86
			c-0.79-0.11-1.52-0.24-2.26-0.31c-0.31-0.03-0.64,0.06-0.95,0.06c-5.4,0.05-10.8,0.1-16.19,0.12c-0.75,0-1.5-0.14-2.23-0.28
			c-1.05-0.21-1.47,0.1-1.6,1.16c-0.1,0.79-0.25,1.57-0.44,2.34c-0.34,1.39-2.04,1.88-3.06,0.83c-0.39-0.4-0.57-1.02-0.8-1.57
			c-0.65-1.53-1.27-3.06-1.83-4.39c-2.67,0-5.01,0-7.39,0c-0.21,0.44-0.34,0.98-0.66,1.34c-1.86,2.05-2.17,4.65-2.6,7.2
			c-0.09,0.55-0.24,1.23,0.76,1.25c0.88,0.02,1.06-0.4,1.09-1.16c0.07-1.64,0.13-3.28,0.35-4.9c0.18-1.31,1.09-1.95,2.4-1.95
			c0.6,0,1.2-0.01,1.8,0c1.6,0.04,2.42,0.8,2.53,2.35c0.06,0.88,0.13,1.75,0.17,2.63c0.02,0.55,0.16,0.83,0.81,0.91
			c1.2,0.14,1.72,0.85,1.69,2.02c-0.02,0.84-0.06,1.68-0.06,2.52c0,1.17-0.14,2.25-1.46,2.73c-0.16,0.06-0.18,0.42-0.33,0.56
			c-0.28,0.26-0.6,0.66-0.91,0.67c-2,0.04-4,0.01-6-0.08c-0.3-0.01-0.75-0.48-0.83-0.81c-0.16-0.68-0.11-1.4-0.15-2.17
			C198.6,137.14,198.01,137.14,197.16,137.14z M225.88,111.81c0,0.04,0,0.09,0,0.13c-3.64,0-7.28-0.01-10.92,0.01
			c-2.14,0.01-2.14,0.04-2.58,2.2c-0.03,0.15-0.12,0.3-0.15,0.45c-0.47,2.53-0.86,5.07,0.96,7.29c0.47,0.58,1.01,1.13,1.62,1.57
			c0.48,0.35,1.1,0.7,1.65,0.7c6.16,0.02,12.32-0.02,18.48-0.05c0.35,0,0.8,0.03,1.03-0.17c1.9-1.65,3.66-3.39,3.37-6.23
			c-0.15-1.5-0.35-3.01-0.41-4.52c-0.04-0.99-0.33-1.41-1.4-1.4C233.64,111.84,229.76,111.81,225.88,111.81z M236.17,99.5
			c-0.13-2.83-0.25-5.64-0.38-8.48c-6.85,0-13.42,0-19.88,0c-0.17,0.9-0.42,1.65-0.44,2.4c-0.05,1.31,0.03,2.63,0.07,3.95
			c0.04,1.16,0.19,2.35-1.46,2.53c-0.02,0-0.03,0.14-0.04,0.21c1.5,0.51,22.79,0.49,23.58-0.12
			C237.11,99.81,236.68,99.67,236.17,99.5z M238.32,102.26c-7.25,0-14.29,0-21.32,0c-0.84,0-1.68,0.03-2.52,0.06
			c-1.03,0.05-1.47,0.59-1.44,1.63c0.05,1.68,0.05,3.35,0.01,5.03c-0.02,0.85,0.36,1.14,1.16,1.1c1.6-0.06,3.2-0.1,4.8-0.13
			c6.16-0.09,12.32-0.19,18.47-0.23c0.97-0.01,1.24-0.31,1.19-1.24c-0.07-1.52,0-3.04-0.04-4.56
			C238.62,103.4,238.44,102.87,238.32,102.26z M206.77,139.51c-0.37-4.03-0.67-7.9-1.13-11.75c-0.06-0.48-0.92-0.95-1.5-1.24
			c-0.39-0.19-0.94-0.05-1.42-0.05c-1.89,0-2.46,0.36-2.54,2.2c-0.14,3.34-0.1,6.69-0.09,10.04c0,0.27,0.39,0.76,0.61,0.77
			C202.61,139.53,204.52,139.51,206.77,139.51z M201.5,123.26c2.06,0,3.9,0,5.78,0C205.92,121.16,203.26,121.1,201.5,123.26z
			 M199.38,136.06c-0.18-0.5-0.22-1.07-0.45-1.17c-0.4-0.16-0.98-0.15-1.37,0.03c-0.23,0.11-0.25,0.68-0.4,1.13
			C197.98,136.06,198.56,136.06,199.38,136.06z"/>
		<path d="M197.16,137.14c0.85,0,1.44,0,2.16,0c0.04,0.77-0.01,1.49,0.15,2.17c0.08,0.33,0.53,0.8,0.83,0.81c2,0.1,4,0.12,6,0.08
			c0.31-0.01,0.64-0.4,0.91-0.67c0.15-0.15,0.18-0.51,0.33-0.56c1.33-0.48,1.46-1.56,1.46-2.73c0-0.84,0.04-1.68,0.06-2.52
			c0.03-1.17-0.49-1.88-1.69-2.02c-0.65-0.08-0.79-0.36-0.81-0.91c-0.04-0.88-0.11-1.76-0.17-2.63c-0.11-1.55-0.93-2.32-2.53-2.35
			c-0.6-0.01-1.2,0-1.8,0c-1.31,0-2.23,0.64-2.4,1.95c-0.22,1.62-0.28,3.26-0.35,4.9c-0.03,0.76-0.21,1.18-1.09,1.16
			c-1-0.02-0.86-0.7-0.76-1.25c0.44-2.55,0.74-5.15,2.6-7.2c0.33-0.36,0.45-0.91,0.66-1.34c2.38,0,4.72,0,7.39,0
			c0.55,1.33,1.18,2.86,1.83,4.39c0.23,0.54,0.41,1.16,0.8,1.57c1.01,1.05,2.72,0.56,3.06-0.83c0.19-0.77,0.34-1.55,0.44-2.34
			c0.13-1.06,0.55-1.37,1.6-1.16c0.74,0.15,1.49,0.28,2.23,0.28c5.4-0.02,10.8-0.08,16.19-0.12c0.32,0,0.64-0.09,0.95-0.06
			c0.74,0.08,1.48,0.2,2.26,0.31c0.49-0.25,1.17-0.61,1.66-0.86c1.87,1.6,1.44,3.48,1.53,5.27c0.02,0.39,0.31,1,0.61,1.11
			c2,0.72,2.71,2.27,2.66,4.19c-0.06,2.35-0.2,4.71-0.47,7.05c-0.18,1.62-1.96,2.93-3.63,2.93c-12.72-0.05-25.43-0.12-38.15-0.13
			c-1.42,0-2.54-0.51-3.37-1.49c-0.46-0.54-0.59-1.43-0.69-2.18C197.41,140.39,197.31,138.81,197.16,137.14z M217.92,142.32
			c0-0.05,0-0.09,0-0.14c1.68,0,3.35,0.01,5.03,0c1.11-0.01,1.72-0.6,1.71-1.71c-0.02-1.4-0.01-2.8-0.15-4.19
			c-0.16-1.55-0.61-1.9-2.18-1.9c-3.08,0-6.15,0.02-9.23,0.06c-1.26,0.01-1.86,0.56-1.94,1.79c-0.08,1.31-0.12,2.63-0.11,3.95
			c0.01,1.58,0.62,2.15,2.21,2.15C214.8,142.32,216.36,142.32,217.92,142.32z M226.63,138.29c-0.92-0.02-1.68,0.7-1.62,1.51
			c0.06,0.87,0.55,1.41,1.44,1.46c0.84,0.05,1.53-0.66,1.52-1.51C227.95,138.82,227.38,138.41,226.63,138.29z M242.4,141.71
			c-0.57-0.44-0.91-0.91-1.23-0.9c-0.32,0.01-0.61,0.52-0.92,0.82c0.31,0.3,0.57,0.77,0.93,0.86
			C241.44,142.55,241.82,142.11,242.4,141.71z M200.09,143.36c0.4-0.57,0.81-0.9,0.79-1.2c-0.02-0.31-0.48-0.58-0.74-0.87
			c-0.3,0.29-0.76,0.55-0.84,0.9C199.24,142.44,199.69,142.8,200.09,143.36z M238.56,132.91c-0.54-0.42-0.85-0.85-1.15-0.84
			c-0.31,0-0.61,0.44-0.91,0.68c0.28,0.32,0.51,0.8,0.86,0.9C237.6,133.72,237.99,133.28,238.56,132.91z M229.92,143.38
			c-0.58-0.36-0.94-0.76-1.23-0.72c-0.3,0.04-0.55,0.51-0.81,0.8c0.29,0.27,0.57,0.72,0.87,0.74
			C229.04,144.22,229.36,143.79,229.92,143.38z"/>
		<path d="M225.88,111.81c3.88,0,7.76,0.03,11.64-0.02c1.07-0.01,1.36,0.41,1.4,1.4c0.06,1.51,0.26,3.01,0.41,4.52
			c0.29,2.84-1.47,4.58-3.37,6.23c-0.22,0.19-0.68,0.16-1.03,0.17c-6.16,0.03-12.32,0.07-18.48,0.05c-0.56,0-1.18-0.35-1.65-0.7
			c-0.6-0.44-1.14-0.99-1.62-1.57c-1.82-2.22-1.43-4.76-0.96-7.29c0.03-0.15,0.12-0.3,0.15-0.45c0.45-2.16,0.44-2.18,2.58-2.2
			c3.64-0.02,7.28-0.01,10.92-0.01C225.88,111.9,225.88,111.85,225.88,111.81z"/>
		<path d="M236.17,99.5c0.51,0.17,0.94,0.31,1.46,0.48c-0.8,0.62-22.08,0.63-23.58,0.12c0.01-0.07,0.02-0.21,0.04-0.21
			c1.65-0.18,1.5-1.38,1.46-2.53c-0.05-1.32-0.12-2.64-0.07-3.95c0.03-0.75,0.27-1.5,0.44-2.4c6.46,0,13.02,0,19.88,0
			C235.92,93.87,236.04,96.67,236.17,99.5z"/>
		<path d="M238.32,102.26c0.12,0.61,0.3,1.14,0.31,1.67c0.04,1.52-0.03,3.04,0.04,4.56c0.04,0.92-0.22,1.23-1.19,1.24
			c-6.16,0.04-12.32,0.14-18.47,0.23c-1.6,0.02-3.2,0.07-4.8,0.13c-0.8,0.03-1.18-0.25-1.16-1.1c0.03-1.68,0.04-3.35-0.01-5.03
			c-0.03-1.04,0.41-1.59,1.44-1.63c0.84-0.04,1.68-0.06,2.52-0.06C224.04,102.26,231.07,102.26,238.32,102.26z"/>
		<path d="M206.77,139.51c-2.25,0-4.16,0.03-6.06-0.04c-0.22-0.01-0.61-0.5-0.61-0.77c-0.01-3.35-0.05-6.7,0.09-10.04
			c0.08-1.83,0.65-2.2,2.54-2.2c0.48,0,1.03-0.14,1.42,0.05c0.58,0.29,1.44,0.76,1.5,1.24C206.1,131.6,206.4,135.47,206.77,139.51z"
			/>
		<path d="M201.5,123.26c1.76-2.16,4.42-2.1,5.78,0C205.4,123.26,203.56,123.26,201.5,123.26z"/>
		<path d="M199.38,136.06c-0.83,0-1.4,0-2.22,0c0.15-0.45,0.17-1.02,0.4-1.13c0.39-0.18,0.97-0.2,1.37-0.03
			C199.17,134.99,199.21,135.56,199.38,136.06z"/>
		<path class="st0" d="M217.92,142.32c-1.56,0-3.11,0-4.67,0c-1.59,0-2.2-0.57-2.21-2.15c-0.01-1.32,0.03-2.64,0.11-3.95
			c0.08-1.23,0.68-1.77,1.94-1.79c3.08-0.03,6.15-0.06,9.23-0.06c1.58,0,2.03,0.36,2.18,1.9c0.14,1.39,0.14,2.79,0.15,4.19
			c0.01,1.12-0.59,1.7-1.71,1.71c-1.68,0.02-3.35,0-5.03,0C217.92,142.23,217.92,142.27,217.92,142.32z"/>
		<path class="st0" d="M226.63,138.29c0.76,0.12,1.32,0.53,1.34,1.46c0.01,0.85-0.68,1.56-1.52,1.51c-0.9-0.05-1.38-0.6-1.44-1.46
			C224.95,138.99,225.71,138.27,226.63,138.29z"/>
		<path class="st0" d="M242.4,141.71c-0.58,0.39-0.96,0.84-1.22,0.77c-0.36-0.09-0.63-0.55-0.93-0.86c0.3-0.29,0.6-0.8,0.92-0.82
			C241.49,140.8,241.84,141.27,242.4,141.71z"/>
		<path class="st0" d="M200.09,143.36c-0.4-0.56-0.85-0.92-0.8-1.17c0.08-0.34,0.54-0.6,0.84-0.9c0.27,0.29,0.72,0.56,0.74,0.87
			C200.9,142.45,200.49,142.79,200.09,143.36z"/>
		<path class="st0" d="M238.56,132.91c-0.57,0.37-0.96,0.81-1.21,0.74c-0.34-0.1-0.58-0.58-0.86-0.9c0.3-0.25,0.61-0.68,0.91-0.68
			C237.71,132.07,238.02,132.5,238.56,132.91z"/>
		<path class="st0" d="M229.92,143.38c-0.56,0.41-0.88,0.84-1.18,0.82c-0.31-0.02-0.58-0.48-0.87-0.74c0.27-0.28,0.51-0.76,0.81-0.8
			C228.98,142.61,229.34,143.01,229.92,143.38z"/>
	</g>
</g>
</svg>
