<?xml version="1.0" encoding="utf-8"?>
<!-- Generator: Adobe Illustrator 24.3.0, SVG Export Plug-In . SVG Version: 6.00 Build 0)  -->
<svg version="1.1" xmlns="http://www.w3.org/2000/svg" xmlns:xlink="http://www.w3.org/1999/xlink" x="0px" y="0px"
	 viewBox="0 0 460.8 259.2" style="enable-background:new 0 0 460.8 259.2;" xml:space="preserve">
<style type="text/css">
	.st0{fill:#FFFFFF;}
</style>
<g id="背景_xA0_影像_1_">
</g>
<g id="正面_xA0_影像_1_">
	<g>
		<path class="st0" d="M197.25,137.23c0-13.05,0-26.09,0-39.12c16.41,0,32.81,0,49.2,0c0,13.05,0,26.09,0,39.12
			C230.04,137.23,213.64,137.23,197.25,137.23z M216.43,111.54l0.03,0.02c0.08-0.94,0.17-1.88,0.25-2.84
			c-0.08-0.05-0.18-0.15-0.28-0.15c-2.47,0.01-4.95,0.02-7.42,0.1c-0.27,0.01-0.51,0.53-0.8,0.78c-0.37,0.32-0.74,0.83-1.15,0.88
			c-1.11,0.13-2.24-0.01-3.35,0.07c-0.98,0.07-1.75-0.05-1.86-1.29c-1.31,0.36-2.43,0.85-2.78,2.14c-0.39,1.42-0.8,2.89-0.82,4.34
			c-0.09,5.99-0.06,11.98-0.01,17.97c0.02,1.77,0.88,2.46,2.69,2.47c2.52,0.01,5.04-0.07,7.56,0.03c1.23,0.05,1.58-0.35,1.58-1.54
			c0.01-5.32,0.1-10.64,0.16-15.95c0-0.42,0.04-0.85,0.07-1.32c0.49,0,0.87,0,1.38,0c0,0.47,0,0.9,0,1.33
			c0,5.24,0.01,10.48-0.01,15.72c0,1.04,0.27,1.7,1.45,1.73c4.94,0.15,9.88,0.36,14.82,0.45c1.38,0.03,2.76-0.39,4.15-0.42
			c3.32-0.07,6.64-0.04,9.96-0.03c2.46,0.01,3.41-0.88,3.39-3.34c-0.04-6.03-0.07-12.06-0.2-18.1c-0.03-1.57-0.59-3.03-1.8-4.17
			c-1.66-1.57-3.59-2.45-5.94-2.59c0.27,0.95,0.41,1.92,0.83,2.75c0.52,1.03,0.35,2.65,2.12,2.79c0.18,0.01,0.51,0.63,0.43,0.85
			c-0.12,0.34-0.58,0.85-0.81,0.81c-0.42-0.08-0.95-0.43-1.11-0.8c-0.45-1.06-0.73-2.19-1.08-3.29c-0.03-0.1-0.09-0.19-0.22-0.49
			c-0.07,0.64-0.11,0.98-0.16,1.51c-0.87-0.46-1.62-0.86-2.37-1.26c0,0,0.04,0.04,0.04,0.04c0.17-0.8,0.33-1.6,0.56-2.7
			c0.65,0.72,1.16,1.28,1.67,1.84c-0.18-0.76-0.46-1.48-0.83-2.15c-0.45-0.8-0.98-1.55-1.46-2.34c-0.69-1.12-1.54-2.19-2-3.4
			c-0.53-1.39-2.57-1.03-2.75-2.65c-0.01-0.06-0.2-0.14-0.31-0.14c-1.72-0.01-3.43-0.01-5.15-0.01c-0.54,1.18-2.18,1.03-2.69,1.84
			c-1.91,3-4.44,5.69-5.23,9.34C216.89,110.78,216.62,111.15,216.43,111.54z M207.43,107.71c3.02,0,6.05,0.02,9.07-0.04
			c0.23,0,0.63-0.54,0.66-0.86c0.08-0.9-0.5-1.3-1.35-1.29c-2.28,0.03-4.56,0.04-6.83,0.14
			C207.73,105.72,207.41,106.19,207.43,107.71z"/>
		<path d="M235.13,110.69c0.75,0.4,1.49,0.79,2.37,1.26c0.06-0.53,0.09-0.87,0.16-1.51c0.14,0.3,0.19,0.39,0.22,0.49
			c0.35,1.1,0.63,2.23,1.08,3.29c0.16,0.38,0.7,0.73,1.11,0.8c0.23,0.04,0.69-0.47,0.81-0.81c0.08-0.22-0.25-0.83-0.43-0.85
			c-1.77-0.14-1.6-1.76-2.12-2.79c-0.42-0.83-0.56-1.8-0.83-2.75c2.35,0.14,4.28,1.02,5.94,2.59c1.21,1.14,1.77,2.61,1.8,4.17
			c0.13,6.03,0.15,12.06,0.2,18.1c0.02,2.46-0.93,3.35-3.39,3.34c-3.32-0.01-6.64-0.04-9.96,0.03c-1.39,0.03-2.77,0.45-4.15,0.42
			c-4.94-0.09-9.88-0.3-14.82-0.45c-1.18-0.04-1.45-0.7-1.45-1.73c0.02-5.24,0.01-10.48,0.01-15.72c0-0.43,0-0.86,0-1.33
			c-0.51,0-0.89,0-1.38,0c-0.03,0.48-0.06,0.9-0.07,1.32c-0.06,5.32-0.15,10.64-0.16,15.95c0,1.18-0.35,1.59-1.58,1.54
			c-2.52-0.1-5.04-0.02-7.56-0.03c-1.82-0.01-2.68-0.7-2.69-2.47c-0.05-5.99-0.08-11.98,0.01-17.97c0.02-1.45,0.43-2.92,0.82-4.34
			c0.35-1.29,1.48-1.78,2.78-2.14c0.11,1.23,0.88,1.35,1.86,1.29c1.11-0.08,2.25,0.06,3.35-0.07c0.41-0.05,0.79-0.55,1.15-0.88
			c0.28-0.25,0.52-0.77,0.8-0.78c2.47-0.08,4.94-0.09,7.42-0.1c0.1,0,0.2,0.11,0.28,0.15c-0.09,0.97-0.17,1.9-0.25,2.84
			c-0.32,0.96-1.56,1.71-0.65,2.96c0.05,0.06-0.1,0.29-0.19,0.42c-1.54,2.38-1.81,5.01-1.88,7.79c-0.12,4.91,2.28,8.34,5.98,11.11
			c2.39,1.79,5.19,1.9,8.08,2.04c5.63,0.28,10.99-4.45,12.28-8.85c0.52-1.8,0.54-3.77,0.62-5.67c0.13-3.01-0.94-5.64-2.94-7.88
			C236.92,112.51,236.01,111.61,235.13,110.69z M209.14,113.75c-2.41,0-4.8-0.02-7.18,0.04c-0.22,0.01-0.61,0.52-0.61,0.8
			c0,0.35,0.23,0.87,0.52,1.02c2.09,1.09,4.16,1.87,6.4,0.11C209.05,115.09,209.42,114.64,209.14,113.75z M214.07,112.08
			c0.44-0.67,0.93-1.09,0.88-1.42c-0.06-0.36-0.63-0.89-0.96-0.88c-0.33,0.01-0.86,0.58-0.89,0.94
			C213.07,111.06,213.58,111.44,214.07,112.08z"/>
		<path class="st0" d="M235.13,110.69c0.88,0.92,1.79,1.82,2.63,2.78c1.99,2.24,3.06,4.87,2.94,7.88c-0.08,1.9-0.1,3.87-0.62,5.67
			c-1.28,4.4-6.64,9.13-12.28,8.85c-2.89-0.14-5.69-0.25-8.08-2.04c-3.7-2.76-6.1-6.2-5.98-11.11c0.07-2.78,0.33-5.41,1.88-7.79
			c0.09-0.13,0.23-0.36,0.19-0.42c-0.91-1.24,0.33-2,0.65-2.96c0,0-0.03-0.02-0.03-0.02c0,0.29,0,0.57,0,0.86
			c0.15,0.05,0.3,0.11,0.45,0.16c0.8-1.54,1.61-3.09,2.41-4.63c0.13,0.02,0.26,0.04,0.39,0.06c0.16,0.72,0.31,1.44,0.46,2.14
			c5-2.67,10.08-2.89,15.02,0.59L235.13,110.69z M227.25,133.39c6.09,0,11.07-4.99,11.04-11.1c-0.02-6.02-5.01-10.99-11.04-10.99
			c-6.03,0-11.01,4.96-11.04,10.99C216.18,128.39,221.15,133.39,227.25,133.39z"/>
		<path d="M235.17,110.73c-4.94-3.48-10.02-3.26-15.02-0.59c-0.15-0.7-0.31-1.42-0.46-2.14c-0.13-0.02-0.26-0.04-0.39-0.06
			c-0.8,1.54-1.61,3.09-2.41,4.63c-0.15-0.05-0.3-0.11-0.45-0.16c0-0.29,0-0.57,0-0.86c0.18-0.39,0.45-0.76,0.54-1.17
			c0.79-3.64,3.32-6.33,5.23-9.34c0.51-0.8,2.14-0.66,2.69-1.84c1.72,0,3.43,0,5.15,0.01c0.11,0,0.31,0.08,0.31,0.14
			c0.18,1.62,2.22,1.26,2.75,2.65c0.46,1.21,1.31,2.28,2,3.4c0.48,0.78,1.01,1.53,1.46,2.34c0.37,0.67,0.66,1.39,0.83,2.15
			c-0.51-0.56-1.02-1.12-1.67-1.84C235.5,109.13,235.34,109.93,235.17,110.73z M233.95,107.16c0.16-0.09,0.31-0.17,0.47-0.26
			c-0.13-0.38-0.18-0.8-0.4-1.13c-0.56-0.87-1.13-1.75-1.82-2.52c-0.35-0.39-0.96-0.73-1.46-0.75c-2.07-0.08-4.15,0.03-6.22-0.07
			c-0.87-0.04-1.46,0.18-1.93,0.86c-0.63,0.92-1.28,1.83-1.86,2.78c-0.13,0.21-0.02,0.56-0.02,0.85c0.29-0.12,0.69-0.16,0.86-0.38
			c0.57-0.76,0.99-1.65,1.61-2.37c0.33-0.39,0.92-0.75,1.43-0.79c1.35-0.12,2.73,0.07,4.06-0.09c1.73-0.22,2.87,0.42,3.73,1.87
			C232.82,105.88,233.42,106.5,233.95,107.16z"/>
		<path d="M207.43,107.71c-0.02-1.52,0.3-1.98,1.55-2.04c2.28-0.1,4.55-0.11,6.83-0.14c0.85-0.01,1.43,0.39,1.35,1.29
			c-0.03,0.31-0.42,0.85-0.66,0.86C213.48,107.73,210.45,107.71,207.43,107.71z"/>
		<path class="st0" d="M209.14,113.75c0.29,0.89-0.09,1.34-0.88,1.96c-2.24,1.76-4.31,0.98-6.4-0.11c-0.29-0.15-0.52-0.67-0.52-1.02
			c0-0.28,0.39-0.79,0.61-0.8C204.34,113.73,206.73,113.75,209.14,113.75z"/>
		<path class="st0" d="M214.07,112.08c-0.48-0.64-1-1.02-0.97-1.35c0.03-0.36,0.57-0.93,0.89-0.94c0.33-0.01,0.9,0.52,0.96,0.88
			C215,110.99,214.51,111.41,214.07,112.08z"/>
		<path d="M227.25,133.39c-6.1,0-11.07-5-11.04-11.1c0.03-6.03,5.01-10.99,11.04-10.99c6.03,0,11.02,4.97,11.04,10.99
			C238.32,128.4,233.35,133.39,227.25,133.39z M227.57,129.21c3.74,0.13,6.95-2.98,7.06-6.84c0.11-3.91-3.16-7.33-7.1-7.43
			c-3.73-0.1-7.16,3.04-7.14,6.76C220.4,125.72,222.99,129.17,227.57,129.21z"/>
		<path class="st0" d="M233.95,107.16c-0.52-0.66-1.13-1.27-1.55-1.99c-0.86-1.46-2-2.09-3.73-1.87c-1.34,0.17-2.71-0.02-4.06,0.09
			c-0.5,0.04-1.09,0.4-1.43,0.79c-0.61,0.72-1.04,1.61-1.61,2.37c-0.16,0.22-0.56,0.26-0.86,0.38c0-0.29-0.11-0.64,0.02-0.85
			c0.58-0.95,1.22-1.86,1.86-2.78c0.46-0.67,1.06-0.9,1.93-0.86c2.07,0.1,4.15-0.02,6.22,0.07c0.5,0.02,1.11,0.37,1.46,0.75
			c0.69,0.77,1.26,1.65,1.82,2.52c0.21,0.32,0.27,0.75,0.4,1.13C234.26,106.99,234.1,107.07,233.95,107.16z"/>
		<path class="st0" d="M227.57,129.21c-4.58-0.05-7.17-3.49-7.19-7.51c-0.02-3.72,3.41-6.85,7.14-6.76c3.95,0.1,7.22,3.52,7.1,7.43
			C234.52,126.23,231.31,129.34,227.57,129.21z M231.63,126.57c0.27-0.31,0.55-0.61,0.82-0.92c1.54-1.94,1.6-4.06,0.56-6.18
			c-1.13-2.29-3.09-3.44-5.63-3.36c-2.54,0.08-4.39,1.37-5.4,3.71c-1.18,2.72-0.17,5.86,2.31,7.48
			C226.66,128.85,229.81,128.53,231.63,126.57z"/>
		<path d="M231.63,126.57c-1.82,1.96-4.97,2.28-7.34,0.74c-2.49-1.62-3.49-4.75-2.31-7.48c1.01-2.34,2.86-3.63,5.4-3.71
			c2.54-0.08,4.5,1.07,5.63,3.36c1.04,2.12,0.99,4.24-0.56,6.18c0.08-0.43,0.21-0.85,0.24-1.29c0.11-1.61-1.12-2.96-2.71-3.01
			c-1.66-0.05-2.99,1.26-2.94,2.91c0.04,1.6,1.36,2.84,2.99,2.72C230.57,126.94,231.1,126.71,231.63,126.57z M224.53,121.65
			c0.19,0,0.38,0,0.57,0c0.36-0.52,0.93-1,1.03-1.57c0.14-0.8-0.43-1.36-1.29-1.37c-0.9-0.01-1.53,0.52-1.38,1.39
			C223.56,120.67,224.16,121.14,224.53,121.65z"/>
		<path class="st0" d="M231.63,126.57c-0.53,0.14-1.06,0.37-1.61,0.41c-1.63,0.12-2.95-1.11-2.99-2.72
			c-0.04-1.65,1.28-2.96,2.94-2.91c1.6,0.05,2.82,1.4,2.71,3.01c-0.03,0.43-0.15,0.86-0.24,1.29
			C232.18,125.96,231.91,126.27,231.63,126.57z"/>
		<path class="st0" d="M224.53,121.65c-0.37-0.51-0.97-0.99-1.06-1.54c-0.15-0.87,0.48-1.4,1.38-1.39c0.86,0.01,1.42,0.57,1.29,1.37
			c-0.1,0.56-0.67,1.05-1.03,1.57C224.91,121.65,224.72,121.65,224.53,121.65z"/>
	</g>
</g>
</svg>
