<?xml version="1.0" encoding="utf-8"?>
<!-- Generator: Adobe Illustrator 24.3.0, SVG Export Plug-In . SVG Version: 6.00 Build 0)  -->
<svg version="1.1" xmlns="http://www.w3.org/2000/svg" xmlns:xlink="http://www.w3.org/1999/xlink" x="0px" y="0px"
	 viewBox="0 0 460.8 259.2" style="enable-background:new 0 0 460.8 259.2;" xml:space="preserve">
<style type="text/css">
	.st0{fill:#FFFFFF;}
</style>
<g id="背景_xA0_影像_1_">
</g>
<g id="左側_xA0_影像_1_">
	<g>
		<path class="st0" d="M205.57,136.05c0-12.48,0-24.96,0-37.44c20.08,0,40.16,0,60.24,0c0,12.48,0,24.96,0,37.44
			C245.73,136.05,225.65,136.05,205.57,136.05z M261.71,134.39c2.4-0.92,2.4-0.92,2.4-3.57c-0.01-5.72-0.02-11.43-0.01-17.15
			c0-0.31,0.2-0.63,0.31-0.94c0.21-0.56,0.61-1.12,0.61-1.68c0.01-1.68-0.15-3.35-0.2-5.03c-0.06-2.19-1.31-2.92-3.18-1.83
			c-0.05,0.03-0.15-0.02-0.17-0.03c-0.44-1.14-0.82-2.27-1.32-3.34c-0.15-0.34-0.57-0.75-0.9-0.78c-2.41-0.2-4.83-0.34-7.24-0.44
			c-4.95-0.21-9.55,1.25-14.05,3.1c-0.4,0.17-0.86,0.66-0.94,1.07c-0.54,2.75-0.21,3.27,2.43,4.2c0.23,0.08,0.44,0.19,0.68,0.24
			c0.94,0.22,1.23,0.81,1.23,1.75c0,4.35,0.07,8.71,0.07,13.06c0,2.28,0.04,4.56-0.12,6.83c-0.14,2.04-0.07,2.27,2,2.58
			c1.19,0.18,2.24,0.5,3.18,1.43c0.64,0.64,1.73,1.08,2.64,1.14c3.46,0.21,6.94,0.28,10.41,0.26c0.74,0,1.47-0.59,2.21-0.91
			L261.71,134.39z M229.94,133.96c0-2.95,0.01-5.87-0.01-8.78c0-0.23-0.17-0.63-0.32-0.67c-1.11-0.25-1-1.1-1-1.89
			c0-1.2-0.01-2.4,0.03-3.6c0.01-0.34,0.12-0.9,0.31-0.97c1.26-0.45,0.98-1.49,1-2.4c0.02-1.88,0.01-3.76-0.01-5.64
			c-0.01-0.66-0.11-1.32-0.19-2.18c-4.12,0.8-8.2-0.14-12.11,0.7c0,0.85,0,1.49,0,2.12c-0.02,7.03-0.05,14.07-0.07,21.1
			c0,1.41,0.28,1.74,1.68,1.86c0.87,0.08,1.76,0,2.64,0.03C224.5,133.76,227.12,133.86,229.94,133.96z M216.41,108.92
			c-0.07-0.06-0.15-0.12-0.22-0.18c-0.33,0.42-0.64,0.87-1.01,1.25c-0.26,0.27-0.6,0.61-0.93,0.64c-2.24,0.19-4.48,0.35-6.73,0.42
			c-0.91,0.03-1.2,0.44-1.2,1.25c0,5.79,0,11.58,0,17.37c0,0.83,0.36,1.25,1.22,1.28c2.1,0.06,4.2,0.17,6.31,0.21
			c0.69,0.01,1.21,0.01,1.38,0.9c0.08,0.41,0.58,0.74,0.89,1.11c0.1-0.05,0.2-0.09,0.3-0.14
			C216.41,124.99,216.41,116.96,216.41,108.92z M231,133.93c0.12,0.06,0.18,0.12,0.25,0.12c1.48,0.02,2.96,0.03,4.43,0.03
			c1.53,0.01,3.95-1.54,4.52-2.91c0.06-0.13,0.03-0.3,0.03-0.46c-0.07-5.27-0.28-10.54-0.13-15.81c0.06-2.16,0.03-3.98-1.82-5.37
			c-0.57-0.43-1.05-0.99-1.62-1.42c-0.27-0.2-0.65-0.34-0.98-0.35c-1.51-0.04-3.02-0.02-4.63-0.02c0,3.43,0,6.6,0,9.75
			c1.5,0.11,1.49,0.12,2.03,1.23c0.07,0.14,0.35,0.32,0.43,0.28c0.17-0.09,0.38-0.3,0.39-0.47c0.02-0.99,0.64-1.03,1.39-1.01
			c0.89,0.02,0.91,0.68,0.93,1.26c0.07,1.59,0.05,3.19,0.11,4.78c0.04,0.98-0.4,1.36-1.35,1.39c-1.31,0.03-2.61,0.14-3.98,0.21
			C231,128.15,231,131.05,231,133.93z"/>
		<path d="M261.75,134.35c-0.74,0.32-1.47,0.9-2.21,0.91c-3.47,0.02-6.95-0.05-10.41-0.26c-0.92-0.05-2-0.5-2.64-1.14
			c-0.94-0.93-1.99-1.25-3.18-1.43c-2.06-0.31-2.14-0.55-2-2.58c0.16-2.27,0.13-4.55,0.12-6.83c-0.01-4.35-0.08-8.71-0.07-13.06
			c0-0.94-0.29-1.53-1.23-1.75c-0.23-0.05-0.45-0.16-0.68-0.24c-2.64-0.93-2.97-1.44-2.43-4.2c0.08-0.41,0.54-0.9,0.94-1.07
			c4.5-1.85,9.09-3.31,14.05-3.1c2.42,0.1,4.83,0.24,7.24,0.44c0.33,0.03,0.74,0.44,0.9,0.78c0.49,1.08,0.88,2.2,1.32,3.34
			c0.02,0,0.12,0.06,0.17,0.03c1.87-1.09,3.12-0.36,3.18,1.83c0.05,1.68,0.22,3.35,0.2,5.03c0,0.56-0.4,1.12-0.61,1.68
			c-0.12,0.31-0.31,0.62-0.31,0.94c-0.01,5.72,0,11.43,0.01,17.15c0,2.65,0,2.65-2.4,3.57c0-2,0.01-3.99-0.01-5.98
			c0-0.19-0.25-0.37-0.36-0.57c-0.21-0.37-0.56-0.74-0.57-1.11c-0.07-2.56-0.08-5.12-0.08-7.67c0-0.82-0.36-1.77,0.69-2.32
			c0.13-0.06,0.13-0.44,0.13-0.67c-0.01-0.67,0.04-1.37-0.1-2.01c-0.09-0.42-0.48-0.78-0.73-1.17c-0.15,0.36-0.3,0.72-0.43,1.09
			c-0.04,0.1,0.01,0.24,0.01,0.36c0.07,1.44-0.03,1.53-1.52,1.55c-0.28,0-0.56,0.02-0.84-0.01c-1.06-0.12-1.41,0.35-1.37,1.39
			c0.12,2.84,0.17,5.67,0.25,8.51c0.08,2.77,0.08,2.77,2.87,2.98c0.04,0,0.08,0.01,0.12,0.01c0.74-0.05,0.96,0.32,0.95,1.02
			c-0.02,1.2,0.03,2.4,0.06,3.6C260.79,134,260.95,134.5,261.75,134.35z M253.46,122.89c0,0,0.01,0,0.01,0
			c0,3.12-0.02,6.24,0.02,9.36c0,0.36,0.3,0.72,0.47,1.09c0.2-0.37,0.41-0.74,0.59-1.12c0.05-0.1,0.01-0.24,0.01-0.36
			c0.02-5.92,0.04-11.84,0.06-17.76c0-0.32,0.04-0.66-0.05-0.95c-0.07-0.22-0.32-0.39-0.49-0.59c-0.2,0.2-0.45,0.38-0.59,0.62
			c-0.09,0.15-0.04,0.39-0.04,0.59C253.46,116.81,253.46,119.85,253.46,122.89z M250.85,107.61c0-0.07,0-0.14,0-0.21
			c1.6,0,3.2,0.02,4.79-0.02c0.23-0.01,0.46-0.32,0.69-0.49c-0.23-0.17-0.45-0.38-0.7-0.5c-0.17-0.08-0.39-0.03-0.59-0.02
			c-2.32,0.06-4.64,0.18-6.95,0.16c-1.14-0.01-2.31-0.15-3.4-0.47c-2.03-0.59-4-1.39-6.02-2.03c-0.41-0.13-0.92,0.04-1.38,0.08
			c0.33,0.28,0.61,0.68,0.99,0.83c1.83,0.71,3.71,1.26,5.51,2.03c1.6,0.69,3.21,0.83,4.91,0.67
			C249.41,107.55,250.13,107.61,250.85,107.61z M256.62,110.13c0.21-0.71,0.09-1.2-0.75-1.2c-1.39-0.01-2.78-0.01-4.16,0.05
			c-0.92,0.05-1.07,0.59-0.82,1.15C252.86,110.13,254.65,110.13,256.62,110.13z M243.68,117.1c0.47-0.78,0.98-1.25,0.95-1.68
			c-0.03-0.36-0.68-0.68-1.05-1.02c-0.36,0.4-0.94,0.76-1,1.19C242.53,115.94,243.11,116.37,243.68,117.1z M245.09,110.17
			c-0.71-0.47-1.16-1-1.54-0.95c-0.39,0.05-0.7,0.66-1.05,1.02c0.37,0.35,0.71,0.95,1.1,0.98
			C243.98,111.25,244.4,110.68,245.09,110.17z M256.31,114.37c-0.46-0.29-0.76-0.62-0.99-0.57c-0.24,0.05-0.6,0.47-0.57,0.69
			c0.02,0.24,0.42,0.59,0.68,0.61C255.65,115.11,255.9,114.73,256.31,114.37z"/>
		<path d="M229.94,133.96c-2.82-0.1-5.45-0.21-8.07-0.29c-0.88-0.03-1.76,0.05-2.64-0.03c-1.4-0.12-1.69-0.45-1.68-1.86
			c0.02-7.03,0.05-14.07,0.07-21.1c0-0.64,0-1.27,0-2.12c3.91-0.85,8,0.1,12.11-0.7c0.08,0.85,0.18,1.51,0.19,2.18
			c0.03,1.88,0.04,3.76,0.01,5.64c-0.01,0.91,0.27,1.95-1,2.4c-0.2,0.07-0.3,0.63-0.31,0.97c-0.04,1.2-0.03,2.4-0.03,3.6
			c0,0.8-0.1,1.64,1,1.89c0.16,0.04,0.32,0.44,0.32,0.67C229.95,128.1,229.94,131.01,229.94,133.96z"/>
		<path d="M216.41,108.92c0,8.04,0,16.08,0,24.11c-0.1,0.05-0.2,0.09-0.3,0.14c-0.31-0.37-0.81-0.7-0.89-1.11
			c-0.17-0.88-0.7-0.88-1.38-0.9c-2.1-0.04-4.2-0.15-6.31-0.21c-0.85-0.03-1.22-0.45-1.22-1.28c0.01-5.79,0-11.58,0-17.37
			c0-0.81,0.29-1.22,1.2-1.25c2.25-0.08,4.49-0.23,6.73-0.42c0.33-0.03,0.67-0.37,0.93-0.64c0.37-0.38,0.68-0.83,1.01-1.25
			C216.27,108.8,216.34,108.86,216.41,108.92z"/>
		<path d="M231,133.93c0-2.88,0-5.78,0-8.77c1.37-0.08,2.67-0.18,3.98-0.21c0.95-0.02,1.39-0.41,1.35-1.39
			c-0.06-1.59-0.04-3.19-0.11-4.78c-0.02-0.58-0.04-1.24-0.93-1.26c-0.75-0.02-1.38,0.02-1.39,1.01c0,0.17-0.22,0.38-0.39,0.47
			c-0.08,0.04-0.36-0.14-0.43-0.28c-0.54-1.11-0.53-1.11-2.03-1.23c0-3.15,0-6.32,0-9.75c1.61,0,3.12-0.02,4.63,0.02
			c0.33,0.01,0.72,0.14,0.98,0.35c0.57,0.43,1.05,0.99,1.62,1.42c1.85,1.39,1.88,3.22,1.82,5.37c-0.16,5.26,0.06,10.54,0.13,15.81
			c0,0.15,0.03,0.32-0.03,0.46c-0.58,1.38-2.99,2.92-4.52,2.91c-1.48-0.01-2.96-0.02-4.43-0.03
			C231.19,134.05,231.12,133.99,231,133.93z M233.39,128.11C233.39,128.12,233.39,128.12,233.39,128.11
			c0.48,0.01,0.96,0.07,1.42-0.02c0.22-0.04,0.56-0.54,0.55-0.55c-0.58-0.61-1.16-1.25-1.84-1.74c-0.12-0.09-0.69,0.39-1.01,0.66
			c-0.16,0.13-0.21,0.38-0.33,0.56c-0.19,0.28-0.4,0.55-0.6,0.83c0.32,0.09,0.64,0.2,0.96,0.25
			C232.83,128.15,233.11,128.11,233.39,128.11z"/>
		<path class="st0" d="M261.75,134.35c-0.8,0.15-0.96-0.35-0.97-0.98c-0.03-1.2-0.08-2.4-0.06-3.6c0.01-0.7-0.21-1.07-0.95-1.02
			c-0.04,0-0.08,0-0.12-0.01c-2.79-0.21-2.79-0.21-2.87-2.98c-0.08-2.84-0.13-5.68-0.25-8.51c-0.04-1.04,0.31-1.51,1.37-1.39
			c0.28,0.03,0.56,0.01,0.84,0.01c1.49-0.02,1.59-0.11,1.52-1.55c-0.01-0.12-0.05-0.25-0.01-0.36c0.13-0.37,0.29-0.73,0.43-1.09
			c0.25,0.39,0.64,0.75,0.73,1.17c0.14,0.65,0.1,1.34,0.1,2.01c0,0.23,0,0.6-0.13,0.67c-1.06,0.54-0.69,1.49-0.69,2.32
			c0,2.56,0.01,5.12,0.08,7.67c0.01,0.38,0.36,0.75,0.57,1.11c0.11,0.2,0.36,0.38,0.36,0.57c0.03,1.99,0.02,3.99,0.01,5.98
			C261.71,134.39,261.75,134.35,261.75,134.35z M257.91,117.22c0,3.15,0.03,6.22-0.01,9.29c-0.02,1.11,0.49,1.27,1.38,1.05
			c0-3.45,0-6.87,0-10.34C258.75,117.22,258.32,117.22,257.91,117.22z"/>
		<path class="st0" d="M253.46,122.89c0-3.04,0-6.08,0-9.12c0-0.2-0.05-0.44,0.04-0.59c0.14-0.24,0.39-0.42,0.59-0.62
			c0.17,0.19,0.42,0.36,0.49,0.59c0.09,0.29,0.05,0.63,0.05,0.95c-0.02,5.92-0.04,11.84-0.06,17.76c0,0.12,0.03,0.26-0.01,0.36
			c-0.18,0.38-0.39,0.75-0.59,1.12c-0.16-0.36-0.46-0.72-0.47-1.09c-0.04-3.12-0.02-6.24-0.02-9.36
			C253.47,122.89,253.47,122.89,253.46,122.89z"/>
		<path class="st0" d="M250.85,107.61c-0.72,0-1.44-0.06-2.16,0.01c-1.7,0.17-3.31,0.02-4.91-0.67c-1.8-0.77-3.68-1.33-5.51-2.03
			c-0.38-0.15-0.66-0.54-0.99-0.83c0.46-0.03,0.97-0.21,1.38-0.08c2.02,0.64,3.99,1.44,6.02,2.03c1.09,0.32,2.26,0.46,3.4,0.47
			c2.32,0.02,4.64-0.1,6.95-0.16c0.2-0.01,0.43-0.06,0.59,0.02c0.26,0.12,0.47,0.33,0.7,0.5c-0.23,0.17-0.46,0.48-0.69,0.49
			c-1.6,0.04-3.2,0.02-4.79,0.02C250.85,107.46,250.85,107.54,250.85,107.61z"/>
		<path class="st0" d="M256.62,110.13c-1.97,0-3.76,0-5.73,0c-0.25-0.56-0.1-1.1,0.82-1.15c1.39-0.07,2.78-0.06,4.16-0.05
			C256.71,108.94,256.83,109.43,256.62,110.13z"/>
		<path class="st0" d="M243.68,117.1c-0.56-0.73-1.15-1.16-1.1-1.51c0.06-0.44,0.64-0.8,1-1.19c0.38,0.34,1.03,0.66,1.05,1.02
			C244.66,115.85,244.15,116.32,243.68,117.1z"/>
		<path class="st0" d="M245.09,110.17c-0.69,0.52-1.11,1.08-1.49,1.05c-0.39-0.03-0.74-0.63-1.1-0.98c0.35-0.36,0.66-0.97,1.05-1.02
			C243.93,109.17,244.38,109.7,245.09,110.17z"/>
		<path class="st0" d="M256.31,114.37c-0.41,0.36-0.66,0.74-0.89,0.72c-0.25-0.02-0.65-0.37-0.68-0.61
			c-0.02-0.22,0.33-0.64,0.57-0.69C255.56,113.75,255.85,114.09,256.31,114.37z"/>
		<path class="st0" d="M233.39,128.11c-0.28,0-0.56,0.03-0.83-0.01c-0.33-0.05-0.64-0.16-0.96-0.25c0.2-0.28,0.41-0.55,0.6-0.83
			c0.12-0.18,0.17-0.43,0.33-0.56c0.32-0.27,0.89-0.75,1.01-0.66c0.68,0.5,1.26,1.13,1.84,1.74c0.01,0.01-0.33,0.5-0.55,0.55
			C234.35,128.18,233.87,128.12,233.39,128.11C233.39,128.12,233.39,128.12,233.39,128.11z"/>
		<path d="M257.91,117.22c0.41,0,0.84,0,1.37,0c0,3.47,0,6.88,0,10.34c-0.89,0.22-1.4,0.06-1.38-1.05
			C257.94,123.44,257.91,120.37,257.91,117.22z"/>
	</g>
</g>
</svg>
