<?xml version="1.0" encoding="utf-8"?>
<!-- Generator: Adobe Illustrator 24.3.0, SVG Export Plug-In . SVG Version: 6.00 Build 0)  -->
<svg version="1.1" xmlns="http://www.w3.org/2000/svg" xmlns:xlink="http://www.w3.org/1999/xlink" x="0px" y="0px"
	 viewBox="0 0 460.8 259.2" style="enable-background:new 0 0 460.8 259.2;" xml:space="preserve">
<style type="text/css">
	.st0{fill:#FFFFFF;}
</style>
<g id="背景_xA0_影像_1_">
</g>
<g id="右側_xA0_影像_1_">
	<g>
		<path class="st0" d="M195.5,103.3c19.51,0,39.03,0,58.56,0c0,12.47,0,24.95,0,37.44c-19.51,0-39.03,0-58.56,0
			C195.5,128.27,195.5,115.79,195.5,103.3z M196.86,123c-0.04,0.47-0.15,0.95-0.12,1.42c0.13,2.66,0.3,5.32,0.45,7.99
			c0.03,0.46,0,0.93,0,1.45c2.08,0,4,0.03,5.91-0.03c0.34-0.01,0.89-0.39,0.95-0.68c0.14-0.76,0.04-1.58,1.21-1.48
			c0.68,0.06,1.37,0.06,2.06,0.09c0,0.15,0,0.3,0,0.44c-0.8,0.09-1.6,0.18-2.4,0.26c0.01,0.14,0.02,0.28,0.03,0.41
			c0.72,0,1.46,0.06,2.17-0.03c0.23-0.03,0.59-0.44,0.6-0.68c0.05-2.3,0.03-4.61,0.03-6.78c-1.29-0.92-3.61,0.88-3.82-1.89
			c-2.07,0-4.07,0.02-6.06-0.02C197.51,123.45,197.19,123.15,196.86,123c0.24-0.09,0.48-0.24,0.73-0.25
			c1.92-0.03,3.84-0.04,5.76-0.05c0.28,0,0.68-0.07,0.81,0.09c0.85,0.98,1.99,0.65,3.01,0.67c1.05,0.02,1.28,0.46,1.26,1.4
			c-0.04,2.2-0.01,4.4-0.01,6.6c0,1.89,0,1.89-1.83,2.3c0.14,0.63-0.49,1.72,0.74,1.71c1.38-0.01,2.03,0.42,1.85,1.84
			c0.99,0,1.84,0,2.74,0c0.04-0.29,0.08-0.48,0.08-0.67c-0.1-3.36-0.21-6.72-0.32-10.07c-0.1-2.84-0.23-5.67-0.3-8.51
			c-0.01-0.3,0.33-0.6,0.5-0.9c0.15,0.28,0.33,0.55,0.45,0.85c0.06,0.14,0.01,0.32,0.02,0.48c0.17,5.64,0.33,11.28,0.51,16.91
			c0.02,0.63,0.12,1.26,0.2,2.04c1.13,0,2.21-0.05,3.27,0.01c1.03,0.06,2.14-0.3,3.11,0.23c0,0.18-0.01,0.35-0.01,0.53
			c-3.31,0-6.63,0-9.94,0c0.05,0.18,0.1,0.36,0.15,0.54c-0.44,0.33-0.91,0.99-1.31,0.95c-3.42-0.32-6.93,0.34-10.27-0.78
			c0.53,0.79,1.31,1.12,2.31,1.11c2.4-0.03,4.8,0.04,7.2-0.03c3.43-0.09,6.87-0.21,10.3-0.43c1.63-0.1,2.35-1.06,2.35-2.72
			c0.01-1.16,0-2.33,0-3.72c0.63,0.7,1.04,1.2,1.49,1.65c0.91,0.89,1.79,1.9,3.22,1.87c2.63-0.06,5.26-0.12,7.89-0.25
			c3.42-0.17,6.83-0.45,10.25-0.62c0.94-0.05,1.55-0.51,1.84-1.27c0.26-0.7,0.68-0.75,1.28-0.74c1.44,0.02,2.88,0.04,4.32,0.01
			c2.63-0.06,2.84-0.28,2.84-2.88c0-0.48,0-0.96,0-1.44c0-4.6,0.01-9.2-0.03-13.81c0-0.44-0.26-1.15-0.57-1.26
			c-0.88-0.3-1.84-0.44-2.78-0.49c-1.32-0.07-2.64,0.04-3.96-0.03c-0.37-0.02-0.74-0.38-1.07-0.64c-0.48-0.39-0.86-1.11-1.37-1.19
			c-1.92-0.29-3.87-0.42-5.81-0.53c-2.27-0.13-4.54-0.2-6.82-0.25c-1.75-0.04-3.5-0.02-5.25-0.01c-0.27,0-0.61-0.02-0.8,0.13
			c-1.49,1.14-2.95,2.32-4.43,3.5c-1.16-1.19-0.92-2.48,0.8-3.16c1.07-0.42,2.15-0.84,3.24-1.26c0-0.58,0.02-1.1,0-1.61
			c-0.06-1.36-0.65-2.21-2.08-2.48c-1.05-0.2-2.04-0.71-3.09-0.93c-2.26-0.48-4.53-1.12-6.81-1.24c-2.63-0.14-5.29,0.17-7.93,0.38
			c-0.85,0.07-1.96-0.8-2.53,0.52c-0.39,0.91-0.7,1.86-1.01,2.8c-0.08,0.25-0.04,0.54-0.06,0.87c-0.61,0-1.17,0.07-1.7-0.01
			c-1.33-0.22-1.42-0.17-1.43,1.21c-0.01,1.84,0,3.68-0.03,5.52c0,0.34,0,0.83-0.21,1.01c-1.95,1.72-1.45,3.89-1.15,6.02
			C196.5,122.68,196.73,122.83,196.86,123z M198.17,134.48c0.07,1.07,0.13,1.95,0.18,2.82c0.07,1.02,0.7,1.52,1.63,1.56
			c1.63,0.07,3.27,0.07,4.9,0.02c0.29-0.01,0.8-0.35,0.81-0.56c0.08-1.39,0.06-2.79,0.03-4.18c0-0.18-0.2-0.46-0.36-0.5
			c-0.16-0.05-0.4,0.12-0.6,0.21c-0.45,0.21-0.9,0.58-1.36,0.6C201.72,134.52,200.01,134.48,198.17,134.48z M208.69,138.77
			c-0.25-0.95-0.36-1.75-0.69-2.44c-0.09-0.18-1.24-0.12-1.28,0.02c-0.23,0.75-0.26,1.56-0.37,2.41
			C207.17,138.77,207.75,138.77,208.69,138.77z"/>
		<path d="M196.86,122.99c-0.14-0.16-0.37-0.31-0.39-0.49c-0.3-2.13-0.81-4.29,1.15-6.02c0.21-0.18,0.2-0.66,0.21-1.01
			c0.02-1.84,0.02-3.68,0.03-5.52c0.01-1.38,0.1-1.42,1.43-1.21c0.53,0.09,1.09,0.01,1.7,0.01c0.02-0.34-0.02-0.63,0.06-0.87
			c0.31-0.94,0.62-1.89,1.01-2.8c0.57-1.32,1.68-0.46,2.53-0.52c2.64-0.21,5.3-0.52,7.93-0.38c2.29,0.12,4.55,0.75,6.81,1.24
			c1.05,0.22,2.04,0.73,3.09,0.93c1.44,0.27,2.03,1.13,2.08,2.48c0.02,0.52,0,1.03,0,1.61c-1.09,0.43-2.17,0.84-3.24,1.26
			c-1.72,0.68-1.96,1.97-0.8,3.16c1.49-1.18,2.95-2.36,4.43-3.5c0.19-0.15,0.53-0.13,0.8-0.13c1.75-0.01,3.5-0.03,5.25,0.01
			c2.27,0.05,4.55,0.12,6.82,0.25c1.94,0.11,3.89,0.24,5.81,0.53c0.5,0.08,0.89,0.8,1.37,1.19c0.32,0.26,0.7,0.62,1.07,0.64
			c1.32,0.07,2.64-0.04,3.96,0.03c0.94,0.05,1.9,0.19,2.78,0.49c0.3,0.1,0.56,0.82,0.57,1.26c0.04,4.6,0.03,9.2,0.03,13.81
			c0,0.48,0,0.96,0,1.44c0,2.59-0.21,2.82-2.84,2.88c-1.44,0.03-2.88,0.02-4.32-0.01c-0.6-0.01-1.02,0.04-1.28,0.74
			c-0.29,0.77-0.9,1.23-1.84,1.27c-3.42,0.17-6.83,0.45-10.25,0.62c-2.63,0.13-5.26,0.19-7.89,0.25c-1.43,0.03-2.31-0.98-3.22-1.87
			c-0.46-0.44-0.86-0.94-1.49-1.65c0,1.39,0,2.55,0,3.72c-0.01,1.67-0.72,2.62-2.35,2.72c-3.43,0.22-6.86,0.34-10.3,0.43
			c-2.4,0.06-4.8,0-7.2,0.03c-1,0.01-1.78-0.32-2.31-1.11c3.34,1.12,6.85,0.46,10.27,0.78c0.4,0.04,0.87-0.62,1.31-0.95
			c-0.05-0.18-0.1-0.36-0.15-0.54c3.31,0,6.63,0,9.94,0c0-0.18,0.01-0.35,0.01-0.53c-0.97-0.53-2.07-0.17-3.11-0.23
			c-1.07-0.06-2.14-0.01-3.27-0.01c-0.08-0.79-0.18-1.41-0.2-2.04c-0.18-5.64-0.34-11.28-0.51-16.91c0-0.16,0.04-0.34-0.02-0.48
			c-0.12-0.29-0.3-0.57-0.45-0.85c-0.18,0.3-0.51,0.61-0.5,0.9c0.07,2.84,0.2,5.67,0.3,8.51c0.12,3.36,0.22,6.72,0.32,10.07
			c0.01,0.19-0.04,0.38-0.08,0.67c-0.9,0-1.76,0-2.74,0c0.19-1.41-0.47-1.85-1.85-1.84c-1.23,0.01-0.61-1.07-0.74-1.71
			c1.82-0.41,1.83-0.41,1.83-2.3c0-2.2-0.03-4.4,0.01-6.6c0.02-0.93-0.21-1.38-1.26-1.4c-1.02-0.02-2.16,0.31-3.01-0.67
			c-0.13-0.15-0.53-0.09-0.81-0.09c-1.92,0.01-3.84,0.01-5.76,0.05C197.34,122.75,197.1,122.91,196.86,122.99
			C196.86,122.99,196.86,122.99,196.86,122.99z M231.47,135.93c0-8.06,0-16,0-23.93c-0.52,0-0.96,0-1.37,0c0,8.04,0,15.98,0,23.93
			C230.59,135.93,230.98,135.93,231.47,135.93z M202.73,112.61c2.85,0,5.56,0,8.3,0c0.05-0.52,0.09-0.98,0.17-1.72
			c4.66,0.9,8.61-0.99,12.51-3.12c-0.37-0.08-0.73-0.07-1.05,0.06c-1.85,0.73-3.69,1.51-5.55,2.21c-0.61,0.23-1.3,0.44-1.94,0.4
			c-1.5-0.08-2.97,0.16-4.52-0.35c-1.29-0.43-2.85-0.09-4.29-0.09c-1.22,0-2.44,0-3.64,0C202.73,110.98,202.73,111.76,202.73,112.61
			z M220.71,132.35c0-3.85-0.03-7.56,0.02-11.27c0.01-0.67,0.27-1.35,0.53-1.99c0.3-0.75,0.21-1.17-0.67-1.19
			c-0.92-0.02-1.84-0.05-2.75,0.02c-0.33,0.03-0.64,0.34-0.95,0.52c0.21,0.3,0.36,0.71,0.65,0.88c0.57,0.33,1.21,0.53,1.97,0.84
			c0,3.99,0,8.08,0,12.18C219.96,132.35,220.27,132.35,220.71,132.35z M243.53,112.51c-0.84-0.31-1.04-0.03-1.04,0.66
			c0.02,7.03,0.01,14.05,0.03,21.08c0,0.27,0.29,0.54,0.44,0.81c0.19-0.28,0.54-0.55,0.54-0.83
			C243.54,127.02,243.53,119.79,243.53,112.51z M234.03,111.87c-0.83,1.43-0.55,22.94,0,23.49
			C234.03,127.54,234.03,119.71,234.03,111.87z M203.49,114.37c1.02,0,2.02-0.03,3.01,0.02c0.26,0.01,0.54,0.22,0.77,0.38
			c0.31,0.22,0.59,0.49,0.88,0.74c0.14-0.3,0.42-0.64,0.37-0.91c-0.07-0.4-0.3-0.87-0.61-1.1c-0.27-0.21-0.76-0.17-1.15-0.18
			c-0.99-0.03-1.99-0.06-2.98-0.01c-0.44,0.02-1.16,0.13-1.24,0.37c-0.19,0.55-0.06,1.21-0.06,1.82c0.15,0.02,0.31,0.04,0.46,0.07
			C203.1,115.21,203.27,114.85,203.49,114.37z M206.02,123.2c0.11,0,0.22,0,0.33,0c0-2.1,0-4.2,0-6.29c-0.11,0-0.22,0-0.33,0
			C206.02,119.01,206.02,121.1,206.02,123.2z"/>
		<path d="M196.86,122.99c0.33,0.16,0.66,0.45,0.99,0.46c1.99,0.04,3.99,0.02,6.06,0.02c0.21,2.77,2.53,0.98,3.82,1.89
			c0,2.17,0.02,4.47-0.03,6.78c0,0.24-0.36,0.65-0.6,0.68c-0.71,0.09-1.45,0.03-2.17,0.03c-0.01-0.14-0.02-0.28-0.03-0.41
			c0.8-0.09,1.6-0.18,2.4-0.26c0-0.15,0-0.3,0-0.44c-0.69-0.03-1.37-0.03-2.06-0.09c-1.17-0.09-1.06,0.72-1.21,1.48
			c-0.05,0.29-0.61,0.67-0.95,0.68c-1.91,0.07-3.83,0.03-5.91,0.03c0-0.51,0.02-0.98,0-1.45c-0.15-2.66-0.31-5.32-0.45-7.99
			C196.71,123.94,196.81,123.47,196.86,122.99C196.86,122.99,196.86,122.99,196.86,122.99z"/>
		<path d="M198.17,134.48c1.84,0,3.54,0.04,5.24-0.03c0.46-0.02,0.9-0.4,1.36-0.6c0.2-0.09,0.43-0.26,0.6-0.21
			c0.16,0.05,0.36,0.32,0.36,0.5c0.03,1.39,0.04,2.79-0.03,4.18c-0.01,0.21-0.53,0.55-0.81,0.56c-1.63,0.04-3.27,0.05-4.9-0.02
			c-0.93-0.04-1.56-0.54-1.63-1.56C198.3,136.42,198.24,135.55,198.17,134.48z"/>
		<path d="M208.69,138.77c-0.94,0-1.52,0-2.35,0c0.11-0.85,0.14-1.66,0.37-2.41c0.04-0.14,1.2-0.2,1.28-0.02
			C208.33,137.02,208.45,137.82,208.69,138.77z"/>
		<path class="st0" d="M231.47,135.93c-0.49,0-0.88,0-1.37,0c0-7.95,0-15.89,0-23.93c0.41,0,0.85,0,1.37,0
			C231.47,119.93,231.47,127.87,231.47,135.93z"/>
		<path class="st0" d="M202.73,112.61c0-0.85,0-1.64,0-2.62c1.2,0,2.42,0,3.64,0c1.44,0,2.99-0.34,4.29,0.09
			c1.54,0.52,3.02,0.27,4.52,0.35c0.64,0.04,1.33-0.17,1.94-0.4c1.86-0.7,3.7-1.48,5.55-2.21c0.32-0.12,0.68-0.14,1.05-0.06
			c-3.9,2.13-7.85,4.02-12.51,3.12c-0.07,0.75-0.12,1.21-0.17,1.72C208.29,112.61,205.58,112.61,202.73,112.61z"/>
		<path class="st0" d="M220.71,132.35c-0.45,0-0.75,0-1.2,0c0-4.11,0-8.19,0-12.18c-0.76-0.31-1.41-0.51-1.97-0.84
			c-0.29-0.17-0.44-0.58-0.65-0.88c0.32-0.18,0.62-0.49,0.95-0.52c0.91-0.07,1.83-0.04,2.75-0.02c0.88,0.02,0.97,0.44,0.67,1.19
			c-0.26,0.63-0.52,1.32-0.53,1.99C220.69,124.78,220.71,128.49,220.71,132.35z"/>
		<path class="st0" d="M243.53,112.51c0,7.28,0.01,14.5-0.02,21.72c0,0.28-0.35,0.55-0.54,0.83c-0.15-0.27-0.44-0.54-0.44-0.81
			c-0.03-7.03-0.02-14.05-0.03-21.08C242.49,112.49,242.69,112.2,243.53,112.51z"/>
		<path class="st0" d="M234.03,111.87c0,7.83,0,15.66,0,23.49C233.48,134.81,233.2,113.31,234.03,111.87z"/>
		<path class="st0" d="M203.49,114.37c-0.22,0.48-0.39,0.84-0.56,1.2c-0.15-0.02-0.31-0.04-0.46-0.07c0-0.61-0.13-1.27,0.06-1.82
			c0.08-0.24,0.8-0.35,1.24-0.37c0.99-0.05,1.99-0.02,2.98,0.01c0.39,0.01,0.88-0.03,1.15,0.18c0.31,0.24,0.54,0.7,0.61,1.1
			c0.05,0.27-0.24,0.6-0.37,0.91c-0.29-0.25-0.57-0.52-0.88-0.74c-0.23-0.17-0.51-0.37-0.77-0.38
			C205.51,114.34,204.51,114.37,203.49,114.37z"/>
		<ellipse class="st0" cx="206.19" cy="120.05" rx="0.23" ry="4.45"/>
	</g>
</g>
</svg>
