<?xml version="1.0" encoding="utf-8"?>
<!-- Generator: Adobe Illustrator 24.3.0, SVG Export Plug-In . SVG Version: 6.00 Build 0)  -->
<svg version="1.1" xmlns="http://www.w3.org/2000/svg" xmlns:xlink="http://www.w3.org/1999/xlink" x="0px" y="0px"
	 viewBox="0 0 460.8 259.2" style="enable-background:new 0 0 460.8 259.2;" xml:space="preserve">
<style type="text/css">
	.st0{fill:#FFFFFF;}
</style>
<g id="背景_xA0_影像_1_">
</g>
<g id="頂_xA0_影像_1_">
	<g>
		<path class="st0" d="M205.63,90.63c16.47,0,32.93,0,49.44,0c0,17.27,0,34.53,0,51.84c-16.44,0-32.92,0-49.44,0
			C205.63,125.25,205.63,107.98,205.63,90.63z M227.51,93.14c-2.74,0.46-5.16,0.86-7.59,1.26c-0.19,0.03-0.4,0.04-0.59,0.03
			c-1.75-0.06-3.51-0.13-5.26-0.17c-0.26-0.01-0.52,0.15-0.79,0.2c-0.46,0.1-0.96,0.33-1.39,0.24c-2.41-0.52-4.95,1.16-5.15,3.64
			c-0.22,2.74-0.43,5.51-0.31,8.26c0.17,3.78,1.13,7.35,4.06,10.08c1.58,1.47,4.5,1.53,6.13,0.13c1.5-1.29,2.44-2.92,3.24-4.7
			c0.21-0.47,0.85-0.98,1.35-1.05c1.53-0.24,1.82-0.01,2.1,1.94c0.22,1.56,0.47,2.88,2.6,2.61c-1.19,1.18-2.21,2.2-3.24,3.23
			c0.03,0.11,0.06,0.23,0.1,0.34c8.85,0,17.71,0,26.9,0c-1.32-1.25-2.5-2.38-3.72-3.54c0.78-0.15,1.52-0.32,2.26-0.41
			c0.3-0.04,0.63,0.1,0.94,0.13c1.15,0.09,2.63-1.07,2.79-2.22c0.12-0.91,0.11-1.84,0.29-2.74c0.1-0.52,0.36-1.08,0.72-1.47
			c0.69-0.73,1.47-1.35,1.42-2.51c-0.1-2.56-0.1-5.12-0.26-7.68c-0.14-2.28-1.57-4.24-3.37-4.61c-1.51-0.31-3.07-0.39-4.6-0.62
			c-0.38-0.06-0.94-0.2-1.05-0.47c-0.58-1.32-1.63-1.66-2.92-1.66c-3.81,0-7.61,0.03-11.42-0.01
			C229.14,91.36,227.93,91.84,227.51,93.14z M222.81,137.46c1.06,0,1.9,0,2.73,0c7.01-0.01,14.01-0.03,21.02-0.02
			c0.75,0,1.49,0.17,2.4,0.28c0.91-3.29-0.08-6.8,0.68-10.36c-9.22,0-18.27,0-27.19,0c0,2.84-0.02,5.82,0.02,8.81
			C222.48,136.62,222.71,137.07,222.81,137.46z M249.49,125.92c0.44-1.71,0.88-3.45,1.35-5.3c-9.69,0-19.09,0-28.69,0
			c0,1.65,0,3.35,0,5.07c0.75-0.1,1.3-0.24,1.84-0.23c7.97,0.06,15.93,0.14,23.9,0.24C248.48,125.7,249.05,125.86,249.49,125.92z
			 M248.58,139.24c-8.37,0-16.69,0-25.25,0c0.94,0.94,1.58,1.61,2.26,2.24c0.15,0.13,0.46,0.11,0.69,0.11
			c2.51,0.03,5.03,0.08,7.54,0.08c3.8,0.01,7.6,0.01,11.39,0c0.35,0,0.96-0.03,1-0.17c0.31-1.06,1.4-1.15,2.04-1.77
			C248.45,139.56,248.55,139.3,248.58,139.24z"/>
		<path d="M227.51,93.14c0.42-1.3,1.64-1.78,3.25-1.77c3.81,0.04,7.61,0.02,11.42,0.01c1.29,0,2.34,0.34,2.92,1.66
			c0.12,0.26,0.68,0.41,1.05,0.47c1.53,0.23,3.09,0.31,4.6,0.62c1.8,0.37,3.24,2.33,3.37,4.61c0.16,2.56,0.15,5.12,0.26,7.68
			c0.05,1.16-0.73,1.77-1.42,2.51c-0.36,0.38-0.62,0.95-0.72,1.47c-0.18,0.9-0.16,1.83-0.29,2.74c-0.16,1.15-1.64,2.31-2.79,2.22
			c-0.32-0.03-0.64-0.16-0.94-0.13c-0.75,0.1-1.48,0.26-2.26,0.41c1.22,1.16,2.4,2.28,3.72,3.54c-9.19,0-18.05,0-26.9,0
			c-0.03-0.11-0.06-0.23-0.1-0.34c1.02-1.02,2.05-2.04,3.24-3.23c-2.13,0.27-2.38-1.05-2.6-2.61c-0.28-1.95-0.57-2.18-2.1-1.94
			c-0.5,0.08-1.14,0.58-1.35,1.05c-0.79,1.78-1.73,3.41-3.24,4.7c-1.63,1.4-4.56,1.35-6.13-0.13c-2.93-2.74-3.89-6.3-4.06-10.08
			c-0.12-2.74,0.09-5.51,0.31-8.26c0.2-2.48,2.74-4.16,5.15-3.64c0.43,0.09,0.93-0.14,1.39-0.24c0.27-0.06,0.53-0.21,0.79-0.2
			c1.76,0.04,3.51,0.12,5.26,0.17c0.2,0.01,0.4,0,0.59-0.03C222.35,94,224.77,93.6,227.51,93.14z M238.48,102.13
			c0-2.05,0-3.98,0-5.94c-1.46,0-2.83,0-4.23,0c0,2.02,0,3.97,0,5.94C235.7,102.13,237.04,102.13,238.48,102.13z M224.83,102.95
			c0-2.66-2.22-4.88-4.9-4.89c-2.75-0.01-4.98,2.21-4.97,4.94c0.01,2.64,2.2,4.89,4.77,4.89
			C222.61,107.89,224.83,105.74,224.83,102.95z M239.03,96.49c0,1.95,0,3.92,0,5.87c1.94,0.19,2,0.14,1.97-1.58
			c-0.02-0.92-0.07-1.83-0.07-2.75C240.91,96.26,240.91,96.24,239.03,96.49z M247.03,102.4c-0.02,0-0.03,0-0.05,0
			c0-1.48,0.03-2.95-0.02-4.43c-0.01-0.3-0.34-0.59-0.52-0.89c-0.16,0.28-0.45,0.57-0.45,0.85c-0.02,2.95-0.01,5.9,0.04,8.85
			c0,0.28,0.32,0.56,0.48,0.83c0.17-0.31,0.47-0.61,0.49-0.92C247.05,105.27,247.03,103.84,247.03,102.4z M232,102.37
			c0.59,0,1.05,0,1.57,0c0-2,0-3.93,0-5.89c-0.57,0-1.06,0-1.65,0c0,1.64,0,3.19,0,4.73C231.93,101.56,231.97,101.91,232,102.37z
			 M211.17,107.77c-0.16,0-0.32,0-0.48-0.01c-0.25,0.41-0.66,0.81-0.68,1.22c-0.01,0.28,0.65,0.9,0.8,0.84
			c0.42-0.17,0.92-0.56,1.03-0.96C211.92,108.58,211.42,108.14,211.17,107.77z M216,107.66c-0.45,0.64-0.95,1.03-0.9,1.34
			c0.06,0.37,0.58,0.67,0.9,1c0.35-0.35,0.86-0.66,0.99-1.08C217.06,108.69,216.49,108.26,216,107.66z M213.76,114.04
			c-0.68-0.39-1.06-0.78-1.34-0.71c-0.29,0.07-0.54,0.55-0.66,0.91c-0.03,0.09,0.47,0.55,0.69,0.52
			C212.79,114.72,213.11,114.42,213.76,114.04z M216.65,111.87c-0.58-0.32-0.93-0.66-1.25-0.63c-0.24,0.02-0.69,0.59-0.63,0.74
			c0.13,0.32,0.52,0.66,0.85,0.71C215.84,112.73,216.15,112.3,216.65,111.87z M213.49,110.36c-0.3,0.42-0.65,0.69-0.63,0.93
			c0.02,0.26,0.39,0.49,0.61,0.73c0.25-0.25,0.63-0.46,0.71-0.75C214.22,111.08,213.82,110.77,213.49,110.36z"/>
		<path d="M222.81,137.46c-0.11-0.39-0.33-0.84-0.34-1.3c-0.03-2.99-0.02-5.97-0.02-8.81c8.92,0,17.97,0,27.19,0
			c-0.76,3.56,0.23,7.07-0.68,10.36c-0.91-0.11-1.66-0.28-2.4-0.28c-7.01-0.01-14.01,0.01-21.02,0.02
			C224.71,137.46,223.88,137.46,222.81,137.46z"/>
		<path d="M249.49,125.92c-0.44-0.07-1.01-0.22-1.59-0.23c-7.97-0.09-15.93-0.17-23.9-0.24c-0.55,0-1.09,0.13-1.84,0.23
			c0-1.71,0-3.42,0-5.07c9.59,0,18.99,0,28.69,0C250.37,122.48,249.93,124.21,249.49,125.92z"/>
		<path d="M248.58,139.24c-0.04,0.06-0.14,0.32-0.32,0.49c-0.64,0.62-1.74,0.7-2.04,1.77c-0.04,0.14-0.65,0.17-1,0.17
			c-3.8,0.01-7.6,0.02-11.39,0c-2.51-0.01-5.03-0.05-7.54-0.08c-0.24,0-0.55,0.02-0.69-0.11c-0.68-0.62-1.32-1.3-2.26-2.24
			C231.9,139.24,240.21,139.24,248.58,139.24z"/>
		<path class="st0" d="M238.48,102.13c-1.44,0-2.79,0-4.23,0c0-1.97,0-3.92,0-5.94c1.4,0,2.78,0,4.23,0
			C238.48,98.16,238.48,100.09,238.48,102.13z"/>
		<path class="st0" d="M224.83,102.95c0,2.78-2.22,4.94-5.1,4.94c-2.57,0-4.76-2.24-4.77-4.89c-0.01-2.74,2.22-4.96,4.97-4.94
			C222.61,98.07,224.83,100.29,224.83,102.95z M219.89,107.21c2.4,0,4.35-1.92,4.39-4.32c0.04-2.43-1.94-4.43-4.39-4.43
			c-2.45,0-4.42,2-4.39,4.43C215.54,105.29,217.49,107.21,219.89,107.21z"/>
		<path class="st0" d="M239.03,96.49c1.88-0.25,1.89-0.24,1.9,1.54c0,0.92,0.06,1.83,0.07,2.75c0.03,1.72-0.03,1.77-1.97,1.58
			C239.03,100.41,239.03,98.45,239.03,96.49z"/>
		<path class="st0" d="M247.03,102.4c0,1.44,0.03,2.87-0.02,4.31c-0.01,0.31-0.32,0.61-0.49,0.92c-0.17-0.28-0.48-0.55-0.48-0.83
			c-0.05-2.95-0.06-5.9-0.04-8.85c0-0.29,0.29-0.57,0.45-0.85c0.18,0.3,0.5,0.59,0.52,0.89c0.05,1.47,0.02,2.95,0.02,4.43
			C246.99,102.4,247.01,102.4,247.03,102.4z"/>
		<path class="st0" d="M232,102.37c-0.03-0.46-0.07-0.81-0.07-1.16c-0.01-1.55,0-3.09,0-4.73c0.59,0,1.08,0,1.65,0
			c0,1.97,0,3.89,0,5.89C233.05,102.37,232.6,102.37,232,102.37z"/>
		<path class="st0" d="M211.17,107.77c0.24,0.37,0.75,0.81,0.67,1.09c-0.11,0.4-0.61,0.79-1.03,0.96c-0.15,0.06-0.82-0.55-0.8-0.84
			c0.02-0.42,0.44-0.82,0.68-1.22C210.85,107.76,211.01,107.77,211.17,107.77z"/>
		<path class="st0" d="M216,107.66c0.5,0.61,1.06,1.03,0.99,1.27c-0.13,0.42-0.64,0.73-0.99,1.08c-0.32-0.33-0.85-0.63-0.9-1
			C215.05,108.69,215.54,108.29,216,107.66z"/>
		<path class="st0" d="M213.76,114.04c-0.65,0.38-0.97,0.69-1.31,0.72c-0.23,0.02-0.73-0.43-0.69-0.52
			c0.13-0.35,0.37-0.84,0.66-0.91C212.7,113.26,213.08,113.65,213.76,114.04z"/>
		<path class="st0" d="M216.65,111.87c-0.51,0.43-0.81,0.86-1.04,0.82c-0.33-0.05-0.72-0.4-0.85-0.71
			c-0.06-0.15,0.39-0.73,0.63-0.74C215.72,111.21,216.07,111.55,216.65,111.87z"/>
		<path class="st0" d="M213.49,110.36c0.33,0.41,0.74,0.72,0.69,0.9c-0.08,0.29-0.46,0.5-0.71,0.75c-0.22-0.24-0.58-0.47-0.61-0.73
			C212.84,111.05,213.18,110.78,213.49,110.36z"/>
		<path d="M219.89,107.21c-2.4,0-4.36-1.92-4.39-4.31c-0.04-2.44,1.94-4.43,4.39-4.43c2.45,0,4.43,2,4.39,4.43
			C224.25,105.29,222.29,107.22,219.89,107.21z M223.1,102.89c-0.02-1.76-1.5-3.18-3.27-3.13c-1.72,0.04-3.11,1.46-3.12,3.17
			c0,1.76,1.44,3.21,3.21,3.2C221.69,106.12,223.12,104.66,223.1,102.89z"/>
		<path class="st0" d="M223.1,102.89c0.02,1.76-1.41,3.23-3.17,3.23c-1.77,0-3.21-1.44-3.21-3.2c0-1.71,1.4-3.12,3.12-3.17
			C221.6,99.72,223.07,101.13,223.1,102.89z"/>
	</g>
</g>
</svg>
